<?xml version="1.0" encoding="utf-8"?>
<!-- Generator: Adobe Illustrator 22.0.1, SVG Export Plug-In . SVG Version: 6.00 Build 0)  -->
<svg version="1.1" id="Camada_1" xmlns="http://www.w3.org/2000/svg" xmlns:xlink="http://www.w3.org/1999/xlink" x="0px" y="0px"
	 viewBox="0 0 1080 1080" style="enable-background:new 0 0 1080 1080;" xml:space="preserve">
<style type="text/css">
	.st0{fill:none;}
	.st1{fill:#E5F2FC;}
	.st2{fill:#D0E8FA;}
	.st3{fill:#FBC8C8;}
	.st4{fill:#1E130F;}
	.st5{fill:#3B322E;}
	.st6{fill:#665F5C;}
	.st7{fill:#FCD5D5;}
	.st8{fill:#322825;}
	.st9{fill:#93CBF3;}
	.st10{fill:#FFFFFF;}
	.st11{fill:#63B3ED;}
	.st12{fill:#59504D;}
	.st13{fill:#918B89;}
	.st14{fill:#CDF0DB;}
	.st15{fill:#D1E9FA;}
	.st16{fill:#7D7674;}
	.st17{fill:#FCDADA;}
	.st18{fill:#FAB8B8;}
	.st19{fill:#FBC1C1;}
	.st20{fill:#79D89D;}
	.st21{fill:#68D391;}
	.st22{fill-opacity:0;stroke:#68D391;stroke-width:2.4871;stroke-linecap:round;stroke-linejoin:round;}
	.st23{fill:#B4E9C8;}
	.st24{fill-opacity:0;stroke:#68D391;stroke-width:1.6386;stroke-linecap:round;stroke-linejoin:round;}
	.st25{fill-opacity:0;stroke:#68D391;stroke-width:0.8483;stroke-linecap:round;stroke-linejoin:round;}
	.st26{fill-opacity:0;stroke:#68D391;stroke-width:1.0209;stroke-linecap:round;stroke-linejoin:round;}
</style>
<rect x="-961.4" y="40" class="st0" width="1000" height="1000"/>
<g>
	<g transform="matrix(1.180548906326294,0,0,1.180548906326294,206.7552490234375,265.74798583984375)">
		<g transform="matrix(1,0,0,1,57.25600051879883,51.59000015258789)">
			<path class="st1" d="M-2.1,11.9C-3.3,25.2-9.8,38-20,46.8c-11.6,10-26.8,14.4-41.6,18.5c-8,2.2-16,4.5-24,6.7
				c-4.5,1.2-9.1,2.5-13.7,2.2c-8.1-0.6-15.1-6.1-19.7-12.7c-9.6-14-9.5-33.2-2.6-48.7c6.9-15.5,19.7-27.8,33.8-37.2
				c11-7.3,23.2-13.2,36.3-14.7c12.7-1.4,28.4,2,37.2,11.9C-5.2-17.1-0.9-1.3-2.1,11.9z"/>
		</g>
	</g>
	
		<g transform="matrix(0.999643087387085,-0.026715805754065514,0.026715805754065514,0.999643087387085,239.16677856445312,297.06146240234375)">
		<g transform="matrix(1,0,0,1,185.63999938964844,378.0039978027344)">
			<path class="st2" d="M59.5-28.3c-21-6.2-42.3,7.6-58.9,21.9s-34.5,30.7-56.3,30.7c-22.1,0.1-40.2-16.5-57-30.9
				s-38.5-28.3-59.6-21.7c-7.9,2.5-14.6,7.6-22.4,10.3c-16.1,5.5-34.3-0.2-47.7-10.6c-3.3-2.6-6.4-5.4-9.3-8.4
				c6,27.2,13.4,53.4,27.9,78.5c11.9,20.5,26.8,39.2,44.4,54.7c46.5,41.2,111.1,60.3,171.3,48.6s114.4-54.3,139.4-112
				c1-2.3,2-4.7,2.9-7c-14.4-6.5-27.7-15.4-39.1-26.4C84.1-11.1,74.1-24,59.5-28.3z"/>
		</g>
		<g transform="matrix(1,0,0,1,207.44200134277344,173.9550018310547)">
			<path class="st1" d="M171.1,45.5c4.8-29.3,1.2-70.2-24.5-83.6c-24.1-12.6-63.1,7.4-86.9-5.8C35.6-57.2,25.9-84.3,9.7-107
				c-20.7-29-55.8-59.3-90-52.4c-34.2,6.9-65.2,37.9-73.9,72.7c-3.9,15.9-4.9,32.2-7.1,48.4s-8.9,31.7-20.6,42.8
				c-20,19-52,13.6-76.4,26.1c-34.7,17.8-30.1,66.8-22.8,101.4c2.5,11.9,4.8,23.6,7.4,35.1c2.9,3,6,5.8,9.3,8.4
				c13.4,10.4,31.7,16.1,47.7,10.6c7.8-2.7,14.6-7.8,22.4-10.3c21.1-6.6,42.8,7.3,59.6,21.7s34.9,31,57,30.9
				c21.9-0.1,39.7-16.5,56.3-30.7c16.8-14.3,38.1-28.1,59.1-21.9c14.6,4.3,24.7,17.1,35.6,27.7c11.4,11,24.7,19.8,39.1,26.4
				c12.7-32.4,17.6-67.7,29.2-100.6C151.5,101.3,166.3,74.9,171.1,45.5z"/>
		</g>
	</g>
	
		<g transform="matrix(0.999643087387085,-0.026715805754065514,0.026715805754065514,0.999643087387085,299.85333251953125,321.9490661621094)">
		<g transform="matrix(1,0,0,1,55.19599914550781,265.0799865722656)">
			<path class="st3" d="M-38.6,47.4l-33.5-17.9L-96,69.3L-38.6,47.4z"/>
		</g>
		<g transform="matrix(1,0,0,1,64.74600219726562,259.8299865722656)">
			<path class="st4" d="M-81.6,34.6l33.5,17.9l-26.8,10.3l-9.2-23.9L-81.6,34.6z"/>
		</g>
	</g>
	
		<g transform="matrix(0.999643087387085,-0.026715805754065514,0.026715805754065514,0.999643087387085,346.80126953125,497.17034912109375)">
		<g transform="matrix(1,0,0,1,90.16500091552734,214.9250030517578)">
			<path class="st5" d="M-132.8,19.7l-3.3,5.4c-5.2,8.5-7.9,18.3-7.9,28.3V86c0,0,33.1,14.1,48,17.2c14.8,3.1,48.3,4,48.3,4
				s32.1-2.3,45.3-5.5c13.2-3.2,34.6-12.7,34.6-12.7L8.3,36.6L-132.8,19.7z"/>
		</g>
		<g transform="matrix(1,0,0,1,83.96299743652344,195.00799560546875)">
			<path class="st4" d="M-108.8,75.3l28.1,5.3c21.1,4,42.9,3.5,63.8-1.4L2,74.9c6.2-1.5,11.5-5.4,14.8-10.8l-2.2-7.6l-141.1-16.8
				l-3.3,5.4c-1.8,2.9-3.3,6-4.4,9.2l0.4,0.9C-129.4,65.7-120,73.2-108.8,75.3z"/>
		</g>
		<g transform="matrix(1,0,0,1,68.69499969482422,236.23199462890625)">
			<path class="st4" d="M-27.5,83.1c-3.5-3.9-7.9-7.9-13-11.7c-5.1-3.8-11-7.4-17.1-10.3c-6.1-3-12.5-5.3-18.7-7s-12.1-2.6-17.3-2.9
				c9.6,3.8,22,8.5,33.8,14.3C-47.9,71.2-36.5,77.9-27.5,83.1z"/>
		</g>
		<g transform="matrix(1,0,0,1,122.91300201416016,233.01400756835938)">
			<path class="st4" d="M-30.8,51.3c-3.9,0.4-8.4,1.5-13.1,3.2c-4.6,1.7-9.3,4.1-13.7,7c-4.4,2.9-8.4,6.3-11.8,9.9s-6.1,7.3-8,10.8
				c5.8-5.4,13.5-12,21.9-17.5C-47.1,59.1-38,54.6-30.8,51.3z"/>
		</g>
		<g transform="matrix(1,0,0,1,101.25,103.91500091552734)">
			<path class="st6" d="M-56.8-64.9l49.7,7.3l63.5,23.4l-4.2,55.3l-26.1-6.3L3.6,81.5c-4,11.9-3.5,24.9,1.4,36.4
				c4.1,9.6,3.3,20.6-2.1,29.5l-2.6,4.2c-2.2,3.6-5.7,6-9.8,6.7c-24.3,4.4-71,9-115.5-2.4c-11-2.8-20.4-10-25.9-20
				c-5-9.1-6.4-19.8-3.9-29.8c5-20.1,14.2-54.4,23.1-74.1l-38-20.3l26.9-42.2c8.9-14,23.3-23.6,39.7-26.4L-56.8-64.9z"/>
		</g>
		<g transform="matrix(1,0,0,1,151.80299377441406,59.6609992980957)">
			<path class="st5" d="M1.7,65.5l4.2-55.4l-63.5-23.4l-49.5-7.2C-96.5,17.8-90.2,53-69.2,87.1c5.1,8.2,18.4,24.2,24.7,31.5l20-59.4
				L1.7,65.5z"/>
		</g>
		<g transform="matrix(1,0,0,1,47.49700164794922,112.91400146484375)">
			<path class="st5" d="M-51.3,43.9c-1.9,2.3-3,5.2-3,8.4c0,7.4,6,13.4,13.4,13.4s13.4-6,13.4-13.4c0-7-5-12.6-11.8-13.2L-49.8,1.4
				l-40.5,15l12.2,6.5c-8.9,19.7-18,54-23.1,74.1l41.3-67.6L-51.3,43.9z"/>
		</g>
		<g transform="matrix(1,0,0,1,111.3550033569336,25.520000457763672)">
			<path class="st5" d="M-33.1,56.6c-4.5,0.8-9.6,1-14.8-0.1c-5.2-1-10.4-3.2-14.7-6.5c-4.3-3.3-7.8-7.8-10.1-12.5
				c-2.4-4.7-3.6-9.7-4-14.2c-1,4.4-0.9,10,1,15.5s5.5,10.9,10.5,14.7c5,3.8,11.2,5.9,17,6.3C-42.5,60.3-37.1,58.8-33.1,56.6z"/>
		</g>
		<g transform="matrix(1,0,0,1,125.48200225830078,77.60700225830078)">
			<path class="st5" d="M-53.8,48.1"/>
		</g>
		<g transform="matrix(1,0,0,1,100.1719970703125,128.0489959716797)">
			<path class="st5" d="M-56.8,54.1"/>
		</g>
		<g transform="matrix(1,0,0,1,99.28900146484375,122.6780014038086)">
			<path class="st5" d="M-56.9,53.4"/>
		</g>
	</g>
	
		<g transform="matrix(0.9978077411651611,-0.06617997586727142,0.06617997586727142,0.9978077411651611,409.6604919433594,378.2629089355469)">
		<g transform="matrix(1,0,0,1,55.369998931884766,118.85900115966797)">
			<path class="st4" d="M-64.7,43.7c5.2,4.1,11.9,6.3,18.5,6.2c3.1,0,6.2-0.6,9.2-1.7l4.3-15.6l-44.2-9.7l-0.8,1.3
				C-74.8,31.8-70.9,38.9-64.7,43.7z"/>
		</g>
		<g transform="matrix(1,0,0,1,48.042999267578125,130.05999755859375)">
			<path class="st7" d="M-38.9,38.8c-6.6,0.1-13.3-2.2-18.5-6.2c-6.2-4.9-10.1-11.9-13-19.4l-7.8,12.5c-3.8,6.2-4.3,13.9-1.2,20.5
				l0,0c4.7,10.2,15.4,16.5,26.6,15.1c10.5-1.3,18.9-8.7,21.6-18.6l1.5-5.6C-32.6,38.1-35.7,38.7-38.9,38.8z"/>
		</g>
		<g transform="matrix(1,0,0,1,44.97700119018555,48.64500045776367)">
			<path class="st8" d="M-82.3,82.3L-102.4,40c-4.1-8.7,0-19.1,9-22.6c18.3-7.2,34.7-23.9,48.5-37.7c1.6-1.6,3.2-3.3,5.3-4.4
				c2-1.1,4.6-1.4,6.6-0.3c2.3,1.3,3.2,4.2,2.9,6.8s-1.5,5-2.8,7.3c2.6-1,6.1-2.7,8.3-4.5c2.8-2.4,5.6-4.8,9.4-5.3
				c1.5-0.2,3.1,0,4.5,0.7c4.4,2.3,4.1,7.9,2.7,12.2C-10.7,0.6-16.4,8.1-23.8,13l-42.3,11.2l3.4,21.6l-10.6,10.9l-0.4,25.5h-8.6
				V82.3z"/>
		</g>
		<g transform="matrix(1,0,0,1,63.34000015258789,78.73300170898438)">
			<path class="st7" d="M-17.2,31.8l-7-28.1C-26.7-7-33.3-15.7-41.9-21.1c-16.5,0.8-32.8,5.2-47.4,13C-87.4-2.4-85.7,4-86.6,10
				c-0.8,5.6-4.2,10.7-9,13.7L-96.2,45l1.2,4.7c5,21.5,26.4,34.9,47.9,29.9S-12.3,53.3-17.2,31.8z"/>
		</g>
		<g transform="matrix(1,0,0,1,37.70199966430664,110.7750015258789)">
			<path class="st9" d="M-43.1,43.7c-10.8-1.2-21-6-28.7-13.7l2.4-2.4c7.2,7.1,16.6,11.7,26.7,12.8L-43.1,43.7z"/>
		</g>
		<g transform="matrix(1,0,0,1,29.118999481201172,92.91699981689453)">
			<path class="st9" d="M-46.5,37.3c-7.5-3.4-15.4-4-25.1-4.3l0.1-3.4c7.9,0.3,17.6,0.7,26.3,4.6L-46.5,37.3z"/>
		</g>
		<g transform="matrix(1,0,0,1,67.36699676513672,98.08200073242188)">
			<path class="st10" d="M-76.3,48.9c-2.2-6.2-4.2-12.7-5.6-18.9c7-2.3,12.5-7.6,16.5-11.3c4.4-4.2,9.9-9.4,16-10.2
				c0.5-0.1,1.1-0.1,1.6-0.1c3.1,0,6.3,0.9,9.7,1.8l1.3,0.4c3.1,0.8,6.8,1.7,10.5,1.7c0.5,0,1.1,0,1.6-0.1c1.5-0.1,3-0.5,4.4-1.1
				L-21.2,7c-4.6,1.5-9.7,0.5-14.4-0.8S-45.1,3.4-49.9,4c-7.4,1-13.3,6.4-18.6,11.5c-5.4,5.1-11.3,10.4-18.7,11.1
				c1.6,7.7,4,16.2,6.8,23.8c3.2,9,12.4,14.1,21.5,12.5C-69,60.4-74.4,54-76.3,48.9z"/>
		</g>
		<g transform="matrix(1,0,0,1,72.09500122070312,99.58000183105469)">
			<path class="st11" d="M-25,9.8c-1.4,0.6-2.9,1-4.4,1.1c-0.5,0-1,0.1-1.6,0.1c-3.7,0-7.4-0.9-10.5-1.7l-1.3-0.4
				c-3.4-1-6.6-1.9-9.7-1.9c-0.6,0-1.1,0-1.6,0.1c-6.1,0.7-11.6,5.9-16,10.2c-3.9,3.7-9.5,9-16.4,11.3c1.5,6.1,3.4,12.7,5.6,18.9
				c1.8,5,7.3,11.5,17.3,14.1c0.8-0.1,1.7-0.3,2.5-0.6l13.7-4.3c17.4-5.4,27.7-23.2,23.7-41L-25,9.8z"/>
		</g>
		
			<g transform="matrix(0.9920183420181274,-0.12609350681304932,0.12609350681304932,0.9920183420181274,48.053001403808594,58.933998107910156)">
			<path class="st8" d="M-61.6,17.8c-4.6,1.7-7.8,5.6-9.1,10.1l22.6-8.5C-52,16.8-57,16.1-61.6,17.8z"/>
		</g>
		
			<g transform="matrix(0.9920183420181274,0.12609350681304932,-0.12609350681304932,0.9920183420181274,82.20500183105469,51.64899826049805)">
			<path class="st8" d="M-47.8,31.6c3.9,0.1,7.2,2.7,9.3,6.6l-18.9-0.6C-55.1,33.8-51.6,31.4-47.8,31.6z"/>
		</g>
		<g transform="matrix(1,0,0,1,54.02199935913086,69.83200073242188)">
			<path class="st4" d="M-52,30.7c0,1.9-1.5,3.4-3.4,3.4c-1.9,0-3.4-1.5-3.4-3.4s1.5-3.4,3.4-3.4C-53.5,27.3-52,28.8-52,30.7z"/>
		</g>
		<g transform="matrix(1,0,0,1,84.1050033569336,63.75)">
			<path class="st4" d="M-49,29.8c0.1,1.9-1.1,3.5-2.6,3.5c-1.5,0.1-2.8-1.4-2.9-3.3c-0.1-1.9,1.1-3.5,2.6-3.5S-49.1,28-49,29.8z"/>
		</g>
		<g transform="matrix(1,0,0,1,17.957000732421875,99.89600372314453)">
			<path class="st7" d="M-46.2,34.3c0,7.4-6,13.4-13.4,13.4S-73,41.7-73,34.3s6-13.4,13.4-13.4C-52.3,20.9-46.2,26.9-46.2,34.3z"/>
		</g>
		<g transform="matrix(1,0,0,1,17.957000732421875,99.8949966430664)">
			<path class="st3" d="M-51.9,34.3c0,4.3-3.5,7.7-7.7,7.7c-4.3,0-7.7-3.5-7.7-7.7c0-4.3,3.5-7.7,7.7-7.7
				C-55.4,26.6-51.9,30-51.9,34.3z"/>
		</g>
		<g transform="matrix(1,0,0,1,30.929000854492188,36.481998443603516)">
			<path class="st12" d="M-86.2,53.7c-3.4-9.5,1.6-19.8,11.1-23.2c6-2.1,11.6-5.3,16.8-9.1C-48,13.8-39.7,4-31.6-5.8
				c2.1-2.5,4.2-5.1,7-6.9c0.3-0.2,0.6-0.3,0.9-0.5c-0.6,0.2-1.2,0.4-1.8,0.7c-2,1.1-3.7,2.7-5.3,4.4C-44.7,5.7-61,22.4-79.4,29.6
				c-9,3.5-13.1,13.9-9,22.6l6.8,14.4L-86.2,53.7z"/>
		</g>
	</g>
	
		<g transform="matrix(0.9907848834991455,-0.13544541597366333,0.13544541597366333,0.9907848834991455,271.29791259765625,317.90716552734375)">
		<g transform="matrix(1,0,0,1,59.45500183105469,276.0840148925781)">
			<path class="st7" d="M-40.4,4.5l-2.1-13.1l-59.2,54c-10.6,9.7-10.7,26.4-0.1,36.1c10.9,10.1,28.3,8.2,36.8-4.1l34.3-49.7
				l-0.6-0.9C-36.1,20.2-39.2,12.6-40.4,4.5z"/>
		</g>
		<g transform="matrix(1,0,0,1,94.79100036621094,246.81100463867188)">
			<path class="st3" d="M-76.1,19.1l-1.8,1.6l2.1,13.1c1.3,8,4.4,15.7,9,22.3l0.6,0.9l9.3-13.4L-76.1,19.1z"/>
		</g>
		<g transform="matrix(1,0,0,1,114.37300109863281,248.19700622558594)">
			<path class="st13" d="M-72,39.6l1.5,2.7c3.1-4.1,9.3-7.3,12.3-8.1c-3.7,0.3-5.8,0.6-9.1,2.1C-69,37-70.6,38.2-72,39.6z"/>
		</g>
		<g transform="matrix(1,0,0,1,113.36199951171875,243.55299377441406)">
			<path class="st14" d="M-73.2,40.2l2.3,4c1.3-1.4,2.9-2.5,4.7-3.3c3.4-1.5,5.5-1.8,9.1-2.1l-2.9-7.7
				C-68.7,33.7-72.4,38.8-73.2,40.2z"/>
		</g>
		<g transform="matrix(1,0,0,1,116.88899993896484,251.8090057373047)">
			<path class="st14" d="M-73,38.7l4.5,8.1c1.3-1.4,2.9-2.5,4.7-3.2c2-0.8,5.2-1.7,7.3-1.9l-4.1-11.1C-63.7,31.4-69.9,34.6-73,38.7z
				"/>
		</g>
		<g transform="matrix(1,0,0,1,118.90899658203125,257.9490051269531)">
			<path class="st13" d="M-70.4,40.6l1.5,2.6c2.4-3.4,6.6-6.4,10.4-7.7c-2.1,0.2-5.3,1.1-7.3,1.9C-67.5,38.1-69.2,39.2-70.4,40.6z"
				/>
		</g>
		<g transform="matrix(1,0,0,1,110.1709976196289,244.9929962158203)">
			<path class="st13" d="M-70,38.7c0.8-1.3,4.5-6.4,13.3-9c-6.6,0.1-12.9,3.1-17.1,8.2l-0.4,0.5l4.4,7.5c0.5-1.2,1.2-2.3,2.1-3.2
				L-70,38.7z"/>
		</g>
		<g transform="matrix(1,0,0,1,107.91999816894531,252.27099609375)">
			<path class="st13" d="M-65.5,35.5c-0.9,1-1.6,2-2.1,3.2l1.9,3.2c0.2-1.3,0.8-2.6,1.7-3.8L-65.5,35.5z"/>
		</g>
		<g transform="matrix(1,0,0,1,116.99199676513672,267.18701171875)">
			<path class="st13" d="M-68.7,37.4L-63,47l2.3-1.7L-67,34C-67.8,35.1-68.4,36.3-68.7,37.4z"/>
		</g>
		<g transform="matrix(1,0,0,1,121.61699676513672,262.97900390625)">
			<path class="st14" d="M-61.2,30.5c-3.8,1.3-8.1,4.3-10.4,7.7l6.3,11.3l8.7-6.6L-61.2,30.5z"/>
		</g>
		<g transform="matrix(1,0,0,1,113.36699676513672,261.7090148925781)">
			<path class="st13" d="M-64.9,36.9c-0.8,0.9-1.5,1.9-2,2.9l1.8,3.1c0.3-1.1,0.9-2.3,1.6-3.4L-64.9,36.9z"/>
		</g>
		<g transform="matrix(1,0,0,1,110.79499816894531,256.7200012207031)">
			<path class="st13" d="M-66.9,33.8c-0.9,1.2-1.5,2.5-1.7,3.8l4.3,7.3c0.5-1.1,1.2-2.1,2-2.9L-66.9,33.8z"/>
		</g>
		<g transform="matrix(1,0,0,1,127.9739990234375,279.6629943847656)">
			<path class="st14" d="M-61.4,45.7c-7.8,0-14.2-6.3-14.2-14.2c0-0.1,0-0.1,0-0.2c-1.3,2.1-2,4.6-2,7.3c0,7.8,6.3,14.2,14.2,14.2
				c7.8,0,14-6.2,14.2-14C-51.7,42.9-56.2,45.7-61.4,45.7z"/>
		</g>
		<g transform="matrix(1,0,0,1,128.87899780273438,273.42498779296875)">
			<path class="st15" d="M-62.3,51.9c5.2,0,9.7-2.8,12.1-6.9c0-0.1,0-0.1,0-0.2c0-7.8-6.3-14.2-14.2-14.2c-5.2,0-9.7,2.8-12.1,6.9
				c0,0.1,0,0.1,0,0.2C-76.4,45.6-70.1,51.9-62.3,51.9z"/>
		</g>
		<g transform="matrix(1,0,0,1,128.87899780273438,269.81201171875)">
			<path class="st10" d="M-56.1,42c-0.4,2.1-3.8,3.3-7.8,2.7c-3.9-0.7-6.9-2.9-6.5-5.1c0.4-2.1,3.8-3.3,7.8-2.7
				C-58.7,37.6-55.8,39.9-56.1,42z"/>
		</g>
		<g transform="matrix(1,0,0,1,55.59600067138672,97.73699951171875)">
			<path class="st16" d="M-124.9-88.7l94.1,217.8l11.5-4.3L-91.4-53.7L-124.9-88.7z"/>
		</g>
		<g transform="matrix(1,0,0,1,48.632999420166016,99.6259994506836)">
			<path class="st13" d="M-117.9-90.6l-0.3-0.3l-3.8,46.1l86.2,176.5l12-4.5L-117.9-90.6z"/>
		</g>
		<g transform="matrix(1,0,0,1,40.994998931884766,99.6259994506836)">
			<path class="st10" d="M-110.6-90.9l-8.9,46.9l91.3,175.7l-86.2-176.5L-110.6-90.9z"/>
		</g>
		<g transform="matrix(1,0,0,1,55.584999084472656,95.77400207519531)">
			<path class="st14" d="M-91.4-51.8l72.1,178.5l-69.3-180l-36.3-33.5v0.1L-91.4-51.8z"/>
		</g>
		<g transform="matrix(1,0,0,1,79.99299621582031,188.1739959716797)">
			<path class="st13" d="M-36.6,4.9l-4.9,7.6c0.1,9-4.4,18.2-11.8,24c-7.2,5.7-17.2,8.4-26.8,7.2c-3.2-0.4-6.3-1.2-9.4-2.4l2.4-3.7
				l-13.3-11.2l-10.1,5.8l-4.9,7.6c9.1,9.5,21,15.6,33.5,17.2c2.1,0.3,4.2,0.4,6.4,0.4c11.1,0,22-3.6,30.4-10.4
				c10.7-8.5,21.9-29,21.8-42.2L-36.6,4.9z"/>
		</g>
		<g transform="matrix(1,0,0,1,82.1719970703125,184.7989959716797)">
			<path class="st14" d="M-72.7,53.2c-2.1,0-4.2-0.1-6.4-0.4c-12.5-1.6-24.4-7.7-33.5-17.2l9.7-9.3c7,7.3,16.1,12,25.5,13.1
				c9.6,1.2,19.6-1.5,26.8-7.2c7.4-5.8,11.9-15,11.8-24l13.4-0.1c0.1,13.2-6.2,26.2-16.9,34.7C-50.7,49.5-61.6,53.2-72.7,53.2z"/>
		</g>
		<g transform="matrix(1,0,0,1,118.75199890136719,209.23899841308594)">
			<path class="st3" d="M-69.9,23L-69.9,23c3.3-1.9,7.5-0.5,9,3.1l4.6,11c1.2,2.9-0.1,6.3-3,7.7s-6.4,0.1-7.8-2.8l-5.3-10.7
				C-73.9,28.2-72.8,24.6-69.9,23z"/>
		</g>
		<g transform="matrix(1,0,0,1,101.85700225830078,223.39100646972656)">
			<path class="st7" d="M-89.1,15.7l11.7-9.4c3.7-3,8.9-3.3,12.9-0.9l6.9,4.2c2.1,1.3,3.8,3.3,4.7,5.6l12.2,32.1
				c0.8,2.2,0.5,4.7-1,6.5l-4,5.3l-2.9-7.7c-6.6,0.1-12.9,3.1-17.1,8.2l-0.4,0.5l4.4,7.5l-8-1.8c-4.9-1-8.9-4.4-10.6-9.1l-11.6-30.8
				C-93.3,22.2-92.1,18.1-89.1,15.7z"/>
		</g>
		<g transform="matrix(1,0,0,1,111.4729995727539,229.38999938964844)">
			<path class="st3" d="M-51.7,37.5l-14-3.9c-2.1-0.6-4.3,0-5.8,1.5l-7.6,7.5l5.6-8.5c2.3-3.6,7-4.7,10.8-2.7L-51.7,37.5z"/>
		</g>
		<g transform="matrix(1,0,0,1,108.60299682617188,219.67599487304688)">
			<path class="st3" d="M-51.8,39.4l-14.2-7c-3-1.5-6.6-0.5-8.5,2.2l-5.2,7.5l3.6-8.3c2-4.6,7.8-6.2,11.9-3.3L-51.8,39.4z"/>
		</g>
		<g transform="matrix(1,0,0,1,105.38300323486328,207.4969940185547)">
			<path class="st3" d="M-53.5,38.7l-10.9-6.9c-3-1.9-6.9-1.3-9.1,1.4l-5.3,6.4l4.4-8.2c1.9-3.6,6.6-4.5,9.8-1.9L-53.5,38.7z"/>
		</g>
	</g>
	
		<g transform="matrix(0.9990086555480957,0.04451692849397659,-0.04451692849397659,0.9990086555480957,501.31939697265625,389.61383056640625)">
		<g transform="matrix(1,0,0,1,11.227999687194824,125.53299713134766)">
			<path class="st17" d="M-34.3,30.7l-10.5-0.9c-4.1-0.3-7.9,2.4-8.8,6.4L-58.9,59l3.2,0.4c6.7,0.7,12.9-3.8,14.2-10.5l1.1-6
				L-34.3,30.7z"/>
		</g>
		<g transform="matrix(1,0,0,1,35.75400161743164,136.31199645996094)">
			<path class="st3" d="M-68.3,40l-3.4-6.9c-1.3-2.6-0.6-5.7,1.6-7.5l9.6-8c3.7-3,8.5-4.2,13.1-3.2l20.7,4.5L-14.2,58l-20.1,18.2
				c-1.9,1.7-4.4,2.7-7,2.6l-7-0.2c-3.1-0.1-5.9-2-7.1-4.8l-1.8-4.3l-1.4-0.3c-2.9-0.6-5.1-3-5.5-5.9l-0.9-7.2
				c-2.6-0.2-4.8-1.8-5.7-4.2l-1.2-3.1c-1.1-2.9-0.1-6.1,2.4-7.9L-68.3,40z"/>
		</g>
		<g transform="matrix(1,0,0,1,22.204999923706055,124.1520004272461)">
			<path class="st17" d="M-54.8,52.2l18.9-15l-6.2,2.9c-4.8,2.2-8.9,5.9-11.7,10.4L-54.8,52.2z"/>
		</g>
		<g transform="matrix(1,0,0,1,28.524999618530273,142.7969970703125)">
			<path class="st17" d="M-57.8,49.6l26.5-6.1l-6,3c-5.3,2.7-11.2,3.8-17.1,3.3L-57.8,49.6z"/>
		</g>
		<g transform="matrix(1,0,0,1,32.00299835205078,158.13600158691406)">
			<path class="st17" d="M-53.5,47.6h18.7l-3.1,0.9c-5,1.4-10.4,1.1-15.3-0.7L-53.5,47.6z"/>
		</g>
		<g transform="matrix(1,0,0,1,92.20600128173828,140.26499938964844)">
			<path class="st18" d="M-91.8,75c16,43.9,47.9,77.7,82.8,87.7l26.5,7.6l17.4-6.3l-4.6-12.6l2.7-3.9c20.3-30.1,23-76.6,7-120.4
				L2-77.2l-131.8,48L-91.8,75z"/>
		</g>
		<g transform="matrix(1,0,0,1,68.14099884033203,39.23400115966797)">
			<path class="st19" d="M-12.4-2.8l-23.1,8.4l-17.4,6.3l-40.5,14.7c7.2,19.9,1.7,40.1-12.3,45.2l131.8-48C12.1,29-5.2,17-12.4-2.8z
				"/>
		</g>
		<g transform="matrix(1,0,0,1,107.72000122070312,122.69999694824219)">
			<path class="st3" d="M-34.6-92.6l-81,29.5c7.2,19.9,1.7,40.1-12.3,45.2L-90,86.3C-74,130.2-42.1,164-7.2,174l26.5,7.6l15.4-22.9
				c20.3-30.1,23-76.6,7-120.4L3.9-65.9C-10.2-60.8-27.4-72.8-34.6-92.6z"/>
		</g>
		<g transform="matrix(1,0,0,1,105.38700103759766,123.78399658203125)">
			<path class="st19" d="M25,44.2L-9.5-50.5c-13.9-0.6-27.6-9.9-36.5-24.7l-52,19c2.7,17.1-1.9,32.9-12.1,42.4l34.5,94.7
				c14.4,39.7,43.6,71,74.3,79.8l13.1,3.8l7.6-11.3C37.2,126.6,39.4,83.9,25,44.2z"/>
		</g>
		<g transform="matrix(1,0,0,1,115.40699768066406,26.666000366210938)">
			<path class="st18" d="M-48.8,19.3l-7.2,2.6c8.9,14.8,22.6,24,36.5,24.7l7.2-2.6C-26.2,43.4-39.9,34.2-48.8,19.3z"/>
		</g>
		<g transform="matrix(1,0,0,1,153.53700256347656,134.218994140625)">
			<path class="st18" d="M-23.2,33.8c14.4,39.7,12.2,82.4-5.6,108.9l-7.6,11.3l4.5,1.3l10.2-15.2c18-26.5,20.2-69.3,5.7-108.9
				l-34.5-94.7l-7.2,2.6L-23.2,33.8z"/>
		</g>
		<g transform="matrix(1,0,0,1,108.8550033569336,117.65399932861328)">
			<path class="st9" d="M-6.7,20.1l-20.6,7.5L-37.3,0l-24,8.7l10,27.6l-20.6,7.5l8.7,24l20.6-7.5l10,27.6l24-8.7l-10-27.6L2,44
				L-6.7,20.1z"/>
		</g>
		<g transform="matrix(1,0,0,1,114.81900024414062,115.48300170898438)">
			<path class="st10" d="M-6,19.8l-20.6,7.5l-10-27.6l-24,8.7l10,27.6l-20.6,7.5l8.7,24l20.6-7.5l10,27.6l24-8.7l-10-27.6l20.6-7.5
				L-6,19.8z"/>
		</g>
	</g>
	<g>
		
			<g transform="matrix(0.9863040447235107,0.16493743658065796,-0.16493743658065796,0.9863040447235107,221.09996032714844,114.01319885253906)">
			<g transform="matrix(1,0,0,1,339.88800048828125,609.3369750976562)">
				<path class="st20" d="M279.8-309.8c0,7.1,5.8,12.9,12.9,12.9c7.1,0,12.9-5.8,12.9-12.9c0-5.4-3.3-10-8-12v-21.1h-9.8l0,21.1
					C283.1-319.8,279.8-315.2,279.8-309.8z"/>
			</g>
			<g transform="matrix(1,0,0,1,339.8890075683594,564.5159912109375)">
				<path class="st21" d="M297.7-298h-9.8v8.8h9.8V-298z"/>
			</g>
			<g transform="matrix(1,0,0,1,339.88800048828125,609.3369750976562)">
				<path class="st22" d="M279.8-309.8c0,7.1,5.8,12.9,12.9,12.9c7.1,0,12.9-5.8,12.9-12.9c0-5.4-3.3-10-8-12v-21.1h-9.8l0,21.1
					C283.1-319.8,279.8-315.2,279.8-309.8z"/>
			</g>
			<g transform="matrix(1,0,0,1,337.6159973144531,648.281005859375)">
				<path class="st23" d="M289.4-342.7c0-1.4,2.1-2.6,4.7-2.6c2.6,0,4.7,1.1,4.7,2.6c0,1.4-2.1,2.6-4.7,2.6
					C291.5-340.1,289.4-341.3,289.4-342.7z"/>
			</g>
			<g transform="matrix(1,0,0,1,339.88800048828125,70.44200134277344)">
				<path class="st20" d="M305.7-14.4c0-7.1-5.8-12.9-12.9-12.9c-7.1,0-12.9,5.8-12.9,12.9c0,5.4,3.3,10,8,12l0,21.1l9.8,0V-2.5
					C302.4-4.4,305.7-9,305.7-14.4z"/>
			</g>
			<g transform="matrix(1,0,0,1,339.8890075683594,115.26300048828125)">
				<path class="st21" d="M287.8-26.2l9.8,0V-35l-9.8,0V-26.2z"/>
			</g>
			<g transform="matrix(1,0,0,1,339.88800048828125,70.44200134277344)">
				<path class="st22" d="M305.7-14.4c0-7.1-5.8-12.9-12.9-12.9c-7.1,0-12.9,5.8-12.9,12.9c0,5.4,3.3,10,8,12l0,21.1l9.8,0V-2.5
					C302.4-4.4,305.7-9,305.7-14.4z"/>
			</g>
			<g transform="matrix(1,0,0,1,342.1610107421875,31.496999740600586)">
				<path class="st23" d="M296.1,18.4c0,1.4-2.1,2.6-4.7,2.6c-2.6,0-4.7-1.1-4.7-2.6c0-1.4,2.1-2.6,4.7-2.6
					C294,15.9,296.1,17,296.1,18.4z"/>
			</g>
			<g transform="matrix(1,0,0,1,479.48199462890625,574.573974609375)">
				<path class="st20" d="M202.8-284.9c3.6,6.2,11.5,8.3,17.7,4.7c6.2-3.6,8.3-11.5,4.7-17.7c-2.7-4.7-7.9-7-12.9-6.3l-10.5-18.3
					l-8.5,4.9l10.5,18.3C200.7-295.2,200.1-289.6,202.8-284.9z"/>
			</g>
			<g transform="matrix(1,0,0,1,452.20098876953125,534.4210205078125)">
				<path class="st21" d="M233.5-274.7l-4.4-7.6l-8.5,4.9l4.4,7.6L233.5-274.7z"/>
			</g>
			<g transform="matrix(1,0,0,1,479.48199462890625,574.573974609375)">
				<path class="st22" d="M202.8-284.9c3.6,6.2,11.5,8.3,17.7,4.7c6.2-3.6,8.3-11.5,4.7-17.7c-2.7-4.7-7.9-7-12.9-6.3l-10.5-18.3
					l-8.5,4.9l10.5,18.3C200.7-295.2,200.1-289.6,202.8-284.9z"/>
			</g>
			<g transform="matrix(1,0,0,1,492.1159973144531,608.1010131835938)">
				<path class="st23" d="M199.6-316.8c-0.7-1.2,0.5-3.3,2.8-4.5c2.2-1.3,4.6-1.3,5.3-0.1c0.7,1.2-0.5,3.3-2.8,4.5
					C202.7-315.6,200.3-315.6,199.6-316.8z"/>
			</g>
			<g transform="matrix(1,0,0,1,200.29400634765625,105.2040023803711)">
				<path class="st20" d="M382.7-39.3c-3.6-6.2-11.5-8.3-17.7-4.7c-6.2,3.6-8.3,11.5-4.7,17.7c2.7,4.7,7.9,7,12.9,6.3l10.5,18.3
					l8.5-4.9L381.7-25C384.8-29,385.4-34.7,382.7-39.3z"/>
			</g>
			<g transform="matrix(1,0,0,1,227.5749969482422,145.35800170898438)">
				<path class="st21" d="M352.1-49.6l4.4,7.6l8.5-4.9l-4.4-7.6L352.1-49.6z"/>
			</g>
			<g transform="matrix(1,0,0,1,200.29400634765625,105.2040023803711)">
				<path class="st22" d="M382.7-39.3c-3.6-6.2-11.5-8.3-17.7-4.7c-6.2,3.6-8.3,11.5-4.7,17.7c2.7,4.7,7.9,7,12.9,6.3l10.5,18.3
					l8.5-4.9L381.7-25C384.8-29,385.4-34.7,382.7-39.3z"/>
			</g>
			<g transform="matrix(1,0,0,1,187.66099548339844,71.6780014038086)">
				<path class="st23" d="M385.9-7.4c0.7,1.2-0.5,3.3-2.8,4.5c-2.2,1.3-4.6,1.3-5.3,0.1c-0.7-1.2,0.5-3.3,2.8-4.5
					C382.8-8.6,385.2-8.6,385.9-7.4z"/>
			</g>
			<g transform="matrix(1,0,0,1,574.572998046875,479.4830017089844)">
				<path class="st20" d="M157-229.6c6.2,3.6,14.1,1.5,17.7-4.7c3.6-6.2,1.5-14.1-4.7-17.7c-4.7-2.7-10.3-2.1-14.4,1l-18.3-10.5
					l-4.9,8.5l18.3,10.5C150-237.5,152.4-232.3,157-229.6z"/>
			</g>
			<g transform="matrix(1,0,0,1,534.4199829101562,452.2019958496094)">
				<path class="st21" d="M185.1-229.9l-7.6-4.4l-4.9,8.5l7.6,4.4L185.1-229.9z"/>
			</g>
			<g transform="matrix(1,0,0,1,574.572998046875,479.4830017089844)">
				<path class="st22" d="M157-229.6c6.2,3.6,14.1,1.5,17.7-4.7c3.6-6.2,1.5-14.1-4.7-17.7c-4.7-2.7-10.3-2.1-14.4,1l-18.3-10.5
					l-4.9,8.5l18.3,10.5C150-237.5,152.4-232.3,157-229.6z"/>
			</g>
			<g transform="matrix(1,0,0,1,605.8280029296875,496.0539855957031)">
				<path class="st23" d="M134.7-249.5c-1.2-0.7-1.2-3.1,0.1-5.3c1.3-2.2,3.3-3.5,4.5-2.8c1.2,0.7,1.2,3.1-0.1,5.3
					C138-250,135.9-248.8,134.7-249.5z"/>
			</g>
			<g transform="matrix(1,0,0,1,105.2030029296875,200.29600524902344)">
				<path class="st20" d="M428.5-94.6c-6.2-3.6-14.1-1.5-17.7,4.7c-3.6,6.2-1.5,14.1,4.7,17.7c4.7,2.7,10.3,2.1,14.4-1l18.3,10.5
					l4.9-8.5l-18.3-10.5C435.5-86.7,433.1-91.9,428.5-94.6z"/>
			</g>
			<g transform="matrix(1,0,0,1,145.3560028076172,227.5760040283203)">
				<path class="st21" d="M400.4-94.3l7.6,4.4l4.9-8.5l-7.6-4.4L400.4-94.3z"/>
			</g>
			<g transform="matrix(1,0,0,1,105.2030029296875,200.29600524902344)">
				<path class="st22" d="M428.5-94.6c-6.2-3.6-14.1-1.5-17.7,4.7c-3.6,6.2-1.5,14.1,4.7,17.7c4.7,2.7,10.3,2.1,14.4-1l18.3,10.5
					l4.9-8.5l-18.3-10.5C435.5-86.7,433.1-91.9,428.5-94.6z"/>
			</g>
			<g transform="matrix(1,0,0,1,73.9489974975586,183.72500610351562)">
				<path class="st23" d="M450.8-74.7c1.2,0.7,1.2,3.1-0.1,5.3s-3.3,3.5-4.5,2.8c-1.2-0.7-1.2-3.1,0.1-5.3
					C447.5-74.2,449.6-75.4,450.8-74.7z"/>
			</g>
			<g transform="matrix(1,0,0,1,609.3350219726562,339.8890075683594)">
				<path class="st20" d="M145.1-149.2c7.1,0,12.9-5.8,12.9-12.9c0-7.1-5.8-12.9-12.9-12.9c-5.4,0-10,3.3-12,8H112l0,9.8h21.1
					C135-152.5,139.7-149.2,145.1-149.2z"/>
			</g>
			<g transform="matrix(1,0,0,1,564.5150146484375,339.8900146484375)">
				<path class="st21" d="M165.6-167h-8.8v9.8h8.8V-167z"/>
			</g>
			<g transform="matrix(1,0,0,1,609.3350219726562,339.8890075683594)">
				<path class="st22" d="M145.1-149.2c7.1,0,12.9-5.8,12.9-12.9c0-7.1-5.8-12.9-12.9-12.9c-5.4,0-10,3.3-12,8H112l0,9.8h21.1
					C135-152.5,139.7-149.2,145.1-149.2z"/>
			</g>
			<g transform="matrix(1,0,0,1,648.280029296875,342.1619873046875)">
				<path class="st23" d="M112.2-158.8c-1.4,0-2.6-2.1-2.6-4.7c0-2.6,1.1-4.7,2.6-4.7c1.4,0,2.6,2.1,2.6,4.7
					C114.8-160.9,113.6-158.8,112.2-158.8z"/>
			</g>
			<g transform="matrix(1,0,0,1,70.44100189208984,339.8890075683594)">
				<path class="st20" d="M440.5-175c-7.1,0-12.9,5.8-12.9,12.9c0,7.1,5.8,12.9,12.9,12.9c5.4,0,10-3.3,12-8l21.1,0v-9.8l-21.1,0
					C450.5-171.7,445.9-175,440.5-175z"/>
			</g>
			<g transform="matrix(1,0,0,1,115.26200103759766,339.8900146484375)">
				<path class="st21" d="M419.9-157.2h8.8l0-9.8h-8.8V-157.2z"/>
			</g>
			<g transform="matrix(1,0,0,1,70.44100189208984,339.8890075683594)">
				<path class="st22" d="M440.5-175c-7.1,0-12.9,5.8-12.9,12.9c0,7.1,5.8,12.9,12.9,12.9c5.4,0,10-3.3,12-8l21.1,0v-9.8l-21.1,0
					C450.5-171.7,445.9-175,440.5-175z"/>
			</g>
			<g transform="matrix(1,0,0,1,31.496999740600586,337.61700439453125)">
				<path class="st23" d="M473.3-165.4c1.4,0,2.6,2.1,2.6,4.7s-1.1,4.7-2.6,4.7c-1.4,0-2.6-2.1-2.6-4.7S471.9-165.4,473.3-165.4z"/>
			</g>
			<g transform="matrix(1,0,0,1,574.572998046875,200.29600524902344)">
				<path class="st20" d="M170-72.2c6.2-3.6,8.3-11.5,4.7-17.7c-3.6-6.2-11.5-8.3-17.7-4.7c-4.7,2.7-7,7.9-6.3,12.9l-18.3,10.5
					l4.9,8.5l18.3-10.5C159.6-70.1,165.3-69.5,170-72.2z"/>
			</g>
			<g transform="matrix(1,0,0,1,534.4199829101562,227.5760040283203)">
				<path class="st21" d="M180.2-102.8l-7.6,4.4l4.9,8.5l7.6-4.4L180.2-102.8z"/>
			</g>
			<g transform="matrix(1,0,0,1,574.572998046875,200.29600524902344)">
				<path class="st22" d="M170-72.2c6.2-3.6,8.3-11.5,4.7-17.7c-3.6-6.2-11.5-8.3-17.7-4.7c-4.7,2.7-7,7.9-6.3,12.9l-18.3,10.5
					l4.9,8.5l18.3-10.5C159.6-70.1,165.3-69.5,170-72.2z"/>
			</g>
			<g transform="matrix(1,0,0,1,608.0989990234375,187.66099548339844)">
				<path class="st23" d="M138.1-68.9c-1.2,0.7-3.3-0.5-4.5-2.8c-1.3-2.2-1.3-4.6-0.1-5.3c1.2-0.7,3.3,0.5,4.5,2.8
					S139.3-69.7,138.1-68.9z"/>
			</g>
			<g transform="matrix(1,0,0,1,105.2040023803711,479.48199462890625)">
				<path class="st20" d="M415.5-252c-6.2,3.6-8.3,11.5-4.7,17.7c3.6,6.2,11.5,8.3,17.7,4.7c4.7-2.7,7-7.9,6.3-12.9l18.3-10.5
					l-4.9-8.5l-18.3,10.5C425.9-254.2,420.2-254.7,415.5-252z"/>
			</g>
			<g transform="matrix(1,0,0,1,145.3560028076172,452.2019958496094)">
				<path class="st21" d="M405.3-221.4l7.6-4.4l-4.9-8.5l-7.6,4.4L405.3-221.4z"/>
			</g>
			<g transform="matrix(1,0,0,1,105.2040023803711,479.48199462890625)">
				<path class="st22" d="M415.5-252c-6.2,3.6-8.3,11.5-4.7,17.7c3.6,6.2,11.5,8.3,17.7,4.7c4.7-2.7,7-7.9,6.3-12.9l18.3-10.5
					l-4.9-8.5l-18.3,10.5C425.9-254.2,420.2-254.7,415.5-252z"/>
			</g>
			<g transform="matrix(1,0,0,1,71.677001953125,492.11700439453125)">
				<path class="st23" d="M447.5-255.3c1.2-0.7,3.3,0.5,4.5,2.8c1.3,2.2,1.3,4.6,0.1,5.3c-1.2,0.7-3.3-0.5-4.5-2.8
					C446.3-252.2,446.2-254.6,447.5-255.3z"/>
			</g>
			<g transform="matrix(1,0,0,1,479.48199462890625,105.2040023803711)">
				<path class="st20" d="M225.2-26.4c3.6-6.2,1.5-14.1-4.7-17.7c-6.2-3.6-14.1-1.5-17.7,4.7c-2.7,4.7-2.1,10.3,1,14.4L193.3-6.7
					l8.5,4.9L212.3-20C217.4-19.4,222.5-21.7,225.2-26.4z"/>
			</g>
			<g transform="matrix(1,0,0,1,452.20098876953125,145.35699462890625)">
				<path class="st21" d="M224.9-54.5l-4.4,7.6l8.5,4.9l4.4-7.6L224.9-54.5z"/>
			</g>
			<g transform="matrix(1,0,0,1,479.48199462890625,105.2040023803711)">
				<path class="st22" d="M225.2-26.4c3.6-6.2,1.5-14.1-4.7-17.7c-6.2-3.6-14.1-1.5-17.7,4.7c-2.7,4.7-2.1,10.3,1,14.4L193.3-6.7
					l8.5,4.9L212.3-20C217.4-19.4,222.5-21.7,225.2-26.4z"/>
			</g>
			<g transform="matrix(1,0,0,1,496.052001953125,73.94999694824219)">
				<path class="st23" d="M205.4-4.1c-0.7,1.2-3.1,1.2-5.3-0.1c-2.2-1.3-3.5-3.3-2.8-4.5c0.7-1.2,3.1-1.2,5.3,0.1
					C204.8-7.3,206.1-5.3,205.4-4.1z"/>
			</g>
			<g transform="matrix(1,0,0,1,200.29400634765625,574.573974609375)">
				<path class="st20" d="M360.3-297.8c-3.6,6.2-1.5,14.1,4.7,17.7c6.2,3.6,14.1,1.5,17.7-4.7c2.7-4.7,2.1-10.3-1-14.4l10.5-18.3
					l-8.5-4.9l-10.5,18.3C368.2-304.8,363-302.5,360.3-297.8z"/>
			</g>
			<g transform="matrix(1,0,0,1,227.5749969482422,534.4210205078125)">
				<path class="st21" d="M360.6-269.7l4.4-7.6l-8.5-4.9l-4.4,7.6L360.6-269.7z"/>
			</g>
			<g transform="matrix(1,0,0,1,200.29400634765625,574.573974609375)">
				<path class="st22" d="M360.3-297.8c-3.6,6.2-1.5,14.1,4.7,17.7c6.2,3.6,14.1,1.5,17.7-4.7c2.7-4.7,2.1-10.3-1-14.4l10.5-18.3
					l-8.5-4.9l-10.5,18.3C368.2-304.8,363-302.5,360.3-297.8z"/>
			</g>
			<g transform="matrix(1,0,0,1,183.7239990234375,605.8280029296875)">
				<path class="st23" d="M380.2-320.1c0.7-1.2,3.1-1.2,5.3,0.1c2.2,1.3,3.5,3.3,2.8,4.5c-0.7,1.2-3.1,1.2-5.3-0.1
					C380.7-316.9,379.5-318.9,380.2-320.1z"/>
			</g>
		</g>
		<g transform="matrix(1,0,0,1,263.635009765625,268.23541259765625)">
			<g transform="matrix(1,0,0,1,236.36500549316406,236.36500549316406)">
				<path class="st20" d="M407.4-111.2c0,50.7-41.1,91.8-91.8,91.8c-50.7,0-91.8-41.1-91.8-91.8s41.1-91.8,91.8-91.8
					C366.3-202.9,407.4-161.9,407.4-111.2z"/>
			</g>
			<g transform="matrix(1,0,0,1,264.0880126953125,263.84600830078125)">
				<path class="st21" d="M348.4-207.6c14.3,16.2,23,37.4,23,60.7c0,50.7-41.1,91.8-91.8,91.8c-23.2,0-44.4-8.6-60.5-22.8
					c16.8,19,41.4,31,68.8,31c50.7,0,91.8-41.1,91.8-91.8C379.7-166.2,367.6-190.8,348.4-207.6z"/>
			</g>
			<g transform="matrix(1,0,0,1,236.36500549316406,236.36500549316406)">
				<path class="st22" d="M407.4-111.2c0,50.7-41.1,91.8-91.8,91.8c-50.7,0-91.8-41.1-91.8-91.8s41.1-91.8,91.8-91.8
					C366.3-202.9,407.4-161.9,407.4-111.2z"/>
			</g>
			<g transform="matrix(1,0,0,1,227.63499450683594,66.80799865722656)">
				<path class="st23" d="M327.9-11.9c0,4-3.2,7.2-7.2,7.2c-4,0-7.2-3.2-7.2-7.2c0-4,3.2-7.2,7.2-7.2
					C324.7-19.1,327.9-15.9,327.9-11.9z"/>
			</g>
			<g transform="matrix(1,0,0,1,333.08599853515625,73.38400268554688)">
				<path class="st23" d="M266.2-15.8c0,4-3.2,7.2-7.2,7.2c-4,0-7.2-3.2-7.2-7.2c0-4,3.2-7.2,7.2-7.2
					C263-22.9,266.2-19.7,266.2-15.8z"/>
			</g>
			<g transform="matrix(1,0,0,1,155.9250030517578,84.94200134277344)">
				<path class="st23" d="M367.4-22.5c0,2.6-2.1,4.6-4.6,4.6s-4.6-2.1-4.6-4.6s2.1-4.6,4.6-4.6S367.4-25.1,367.4-22.5z"/>
			</g>
			<g transform="matrix(1,0,0,1,95.2770004272461,158.30599975585938)">
				<path class="st23" d="M402.9-65.5c0,2.6-2.1,4.6-4.6,4.6c-2.6,0-4.6-2.1-4.6-4.6c0-2.6,2.1-4.6,4.6-4.6
					C400.8-70.1,402.9-68,402.9-65.5z"/>
			</g>
			<g transform="matrix(1,0,0,1,392.52801513671875,173.81399536132812)">
				<path class="st23" d="M226.5-74.6c0,1.3-1,2.3-2.3,2.3c-1.3,0-2.3-1-2.3-2.3c0-1.3,1-2.3,2.3-2.3
					C225.5-76.9,226.5-75.8,226.5-74.6z"/>
			</g>
			<g transform="matrix(1,0,0,1,289.41400146484375,108.79499816894531)">
				<path class="st23" d="M286.9-36.5c0,1.3-1,2.3-2.3,2.3c-1.3,0-2.3-1-2.3-2.3c0-1.3,1-2.3,2.3-2.3
					C285.9-38.8,286.9-37.8,286.9-36.5z"/>
			</g>
		</g>
	</g>
	<g>
		
			<g transform="matrix(0.9863040447235107,0.16493743658065796,-0.16493743658065796,0.9863040447235107,221.09996032714844,114.01319885253906)">
			<g transform="matrix(1,0,0,1,339.88800048828125,609.3369750976562)">
				<path class="st20" d="M216.4-93.2c0,4.7,3.8,8.5,8.5,8.5c4.7,0,8.5-3.8,8.5-8.5c0-3.6-2.2-6.6-5.3-7.9V-115h-6.5l0,13.9
					C218.6-99.8,216.4-96.8,216.4-93.2z"/>
			</g>
			<g transform="matrix(1,0,0,1,339.8890075683594,564.5159912109375)">
				<path class="st21" d="M228.2-70.2l-6.5,0v5.8h6.5V-70.2z"/>
			</g>
			<g transform="matrix(1,0,0,1,339.88800048828125,609.3369750976562)">
				<path class="st24" d="M216.4-93.2c0,4.7,3.8,8.5,8.5,8.5c4.7,0,8.5-3.8,8.5-8.5c0-3.6-2.2-6.6-5.3-7.9V-115h-6.5l0,13.9
					C218.6-99.8,216.4-96.8,216.4-93.2z"/>
			</g>
			<g transform="matrix(1,0,0,1,337.6159973144531,648.281005859375)">
				<path class="st23" d="M223.5-128.2c0-0.9,1.4-1.7,3.1-1.7c1.7,0,3.1,0.8,3.1,1.7c0,0.9-1.4,1.7-3.1,1.7
					C224.9-126.5,223.5-127.2,223.5-128.2z"/>
			</g>
			<g transform="matrix(1,0,0,1,339.88800048828125,70.44200134277344)">
				<path class="st20" d="M233.4,285.2c0-4.7-3.8-8.5-8.5-8.5c-4.7,0-8.5,3.8-8.5,8.5c0,3.6,2.2,6.6,5.3,7.9V307h6.5l0-13.9
					C231.3,291.8,233.4,288.8,233.4,285.2z"/>
			</g>
			<g transform="matrix(1,0,0,1,339.8890075683594,115.26300048828125)">
				<path class="st21" d="M221.7,262.2h6.5v-5.8h-6.5V262.2z"/>
			</g>
			<g transform="matrix(1,0,0,1,339.88800048828125,70.44200134277344)">
				<path class="st24" d="M233.4,285.2c0-4.7-3.8-8.5-8.5-8.5c-4.7,0-8.5,3.8-8.5,8.5c0,3.6,2.2,6.6,5.3,7.9V307h6.5l0-13.9
					C231.3,291.8,233.4,288.8,233.4,285.2z"/>
			</g>
			<g transform="matrix(1,0,0,1,342.1610107421875,31.496999740600586)">
				<path class="st23" d="M226.3,320.2c0,0.9-1.4,1.7-3.1,1.7s-3.1-0.8-3.1-1.7c0-0.9,1.4-1.7,3.1-1.7S226.3,319.2,226.3,320.2z"/>
			</g>
			<g transform="matrix(1,0,0,1,479.48199462890625,574.573974609375)">
				<path class="st20" d="M118.1-65c2.4,4.1,7.6,5.5,11.6,3.1c4.1-2.4,5.5-7.6,3.1-11.6c-1.8-3.1-5.2-4.6-8.5-4.2l-6.9-12l-5.6,3.2
					l6.9,12C116.6-71.8,116.3-68,118.1-65z"/>
			</g>
			<g transform="matrix(1,0,0,1,452.20098876953125,534.4210205078125)">
				<path class="st21" d="M147.5-44.5l-2.9-5l-5.6,3.2l2.9,5L147.5-44.5z"/>
			</g>
			<g transform="matrix(1,0,0,1,479.48199462890625,574.573974609375)">
				<path class="st24" d="M118.1-65c2.4,4.1,7.6,5.5,11.6,3.1c4.1-2.4,5.5-7.6,3.1-11.6c-1.8-3.1-5.2-4.6-8.5-4.2l-6.9-12l-5.6,3.2
					l6.9,12C116.6-71.8,116.3-68,118.1-65z"/>
			</g>
			<g transform="matrix(1,0,0,1,492.1159973144531,608.1010131835938)">
				<path class="st23" d="M111.6-97.4c-0.5-0.8,0.3-2.1,1.8-3c1.5-0.8,3-0.9,3.5-0.1s-0.3,2.1-1.8,3
					C113.6-96.7,112.1-96.6,111.6-97.4z"/>
			</g>
			<g transform="matrix(1,0,0,1,200.29400634765625,105.2040023803711)">
				<path class="st20" d="M331.8,257c-2.4-4.1-7.6-5.5-11.6-3.1c-4.1,2.4-5.5,7.6-3.1,11.6c1.8,3.1,5.2,4.6,8.5,4.2l6.9,12l5.6-3.2
					l-6.9-12C333.2,263.8,333.6,260,331.8,257z"/>
			</g>
			<g transform="matrix(1,0,0,1,227.5749969482422,145.35800170898438)">
				<path class="st21" d="M302.3,236.5l2.9,5l5.6-3.2l-2.9-5L302.3,236.5z"/>
			</g>
			<g transform="matrix(1,0,0,1,200.29400634765625,105.2040023803711)">
				<path class="st24" d="M331.8,257c-2.4-4.1-7.6-5.5-11.6-3.1c-4.1,2.4-5.5,7.6-3.1,11.6c1.8,3.1,5.2,4.6,8.5,4.2l6.9,12l5.6-3.2
					l-6.9-12C333.2,263.8,333.6,260,331.8,257z"/>
			</g>
			<g transform="matrix(1,0,0,1,187.66099548339844,71.6780014038086)">
				<path class="st23" d="M338.2,289.4c0.5,0.8-0.3,2.1-1.8,3c-1.5,0.8-3,0.9-3.5,0.1c-0.5-0.8,0.3-2.1,1.8-3
					C336.2,288.7,337.8,288.6,338.2,289.4z"/>
			</g>
			<g transform="matrix(1,0,0,1,574.572998046875,479.4830017089844)">
				<path class="st20" d="M55.4,3.9c4.1,2.4,9.3,1,11.6-3.1c2.4-4.1,1-9.3-3.1-11.6c-3.1-1.8-6.8-1.4-9.5,0.6l-12-6.9l-3.2,5.6
					l12,6.9C50.8-1.3,52.4,2.1,55.4,3.9z"/>
			</g>
			<g transform="matrix(1,0,0,1,534.4199829101562,452.2019958496094)">
				<path class="st21" d="M87.6,13l-5-2.9l-3.2,5.6l5,2.9L87.6,13z"/>
			</g>
			<g transform="matrix(1,0,0,1,574.572998046875,479.4830017089844)">
				<path class="st24" d="M55.4,3.9c4.1,2.4,9.3,1,11.6-3.1c2.4-4.1,1-9.3-3.1-11.6c-3.1-1.8-6.8-1.4-9.5,0.6l-12-6.9l-3.2,5.6
					l12,6.9C50.8-1.3,52.4,2.1,55.4,3.9z"/>
			</g>
			<g transform="matrix(1,0,0,1,605.8280029296875,496.0539855957031)">
				<path class="st23" d="M30.1-14.9c-0.8-0.5-0.8-2,0.1-3.5c0.8-1.5,2.2-2.3,3-1.8c0.8,0.5,0.8,2-0.1,3.5
					C32.2-15.2,30.9-14.4,30.1-14.9z"/>
			</g>
			<g transform="matrix(1,0,0,1,105.2030029296875,200.29600524902344)">
				<path class="st20" d="M394.4,188.1c-4.1-2.4-9.3-1-11.6,3.1c-2.4,4.1-1,9.3,3.1,11.6c3.1,1.8,6.8,1.4,9.5-0.6l12,6.9l3.2-5.6
					l-12-6.9C399,193.3,397.5,189.9,394.4,188.1z"/>
			</g>
			<g transform="matrix(1,0,0,1,145.3560028076172,227.5760040283203)">
				<path class="st21" d="M362.2,179l5,2.9l3.2-5.6l-5-2.9L362.2,179z"/>
			</g>
			<g transform="matrix(1,0,0,1,105.2030029296875,200.29600524902344)">
				<path class="st24" d="M394.4,188.1c-4.1-2.4-9.3-1-11.6,3.1c-2.4,4.1-1,9.3,3.1,11.6c3.1,1.8,6.8,1.4,9.5-0.6l12,6.9l3.2-5.6
					l-12-6.9C399,193.3,397.5,189.9,394.4,188.1z"/>
			</g>
			<g transform="matrix(1,0,0,1,73.9489974975586,183.72500610351562)">
				<path class="st23" d="M419.8,206.9c0.8,0.5,0.8,2-0.1,3.5s-2.2,2.3-3,1.8c-0.8-0.5-0.8-2,0.1-3.5
					C417.6,207.2,419,206.4,419.8,206.9z"/>
			</g>
			<g transform="matrix(1,0,0,1,609.3350219726562,339.8890075683594)">
				<path class="st20" d="M35.7,104.5c4.7,0,8.5-3.8,8.5-8.5c0-4.7-3.8-8.5-8.5-8.5c-3.6,0-6.6,2.2-7.9,5.3l-13.9,0l0,6.5l13.9,0
					C29.1,102.3,32.1,104.5,35.7,104.5z"/>
			</g>
			<g transform="matrix(1,0,0,1,564.5150146484375,339.8900146484375)">
				<path class="st21" d="M64.5,92.8h-5.8l0,6.5l5.8,0V92.8z"/>
			</g>
			<g transform="matrix(1,0,0,1,609.3350219726562,339.8890075683594)">
				<path class="st24" d="M35.7,104.5c4.7,0,8.5-3.8,8.5-8.5c0-4.7-3.8-8.5-8.5-8.5c-3.6,0-6.6,2.2-7.9,5.3l-13.9,0l0,6.5l13.9,0
					C29.1,102.3,32.1,104.5,35.7,104.5z"/>
			</g>
			<g transform="matrix(1,0,0,1,648.280029296875,342.1619873046875)">
				<path class="st23" d="M0.7,97.4c-0.9,0-1.7-1.4-1.7-3.1c0-1.7,0.8-3.1,1.7-3.1c0.9,0,1.7,1.4,1.7,3.1C2.4,96,1.7,97.4,0.7,97.4z
					"/>
			</g>
			<g transform="matrix(1,0,0,1,70.44100189208984,339.8890075683594)">
				<path class="st20" d="M414.2,87.5c-4.7,0-8.5,3.8-8.5,8.5c0,4.7,3.8,8.5,8.5,8.5c3.6,0,6.6-2.2,7.9-5.3l13.9,0v-6.5H422
					C420.8,89.7,417.7,87.5,414.2,87.5z"/>
			</g>
			<g transform="matrix(1,0,0,1,115.26200103759766,339.8900146484375)">
				<path class="st21" d="M385.3,99.2h5.8l0-6.5l-5.8,0V99.2z"/>
			</g>
			<g transform="matrix(1,0,0,1,70.44100189208984,339.8890075683594)">
				<path class="st24" d="M414.2,87.5c-4.7,0-8.5,3.8-8.5,8.5c0,4.7,3.8,8.5,8.5,8.5c3.6,0,6.6-2.2,7.9-5.3l13.9,0v-6.5H422
					C420.8,89.7,417.7,87.5,414.2,87.5z"/>
			</g>
			<g transform="matrix(1,0,0,1,31.496999740600586,337.61700439453125)">
				<path class="st23" d="M449.1,94.6c0.9,0,1.7,1.4,1.7,3.1s-0.8,3.1-1.7,3.1s-1.7-1.4-1.7-3.1C447.4,96,448.2,94.6,449.1,94.6z"/>
			</g>
			<g transform="matrix(1,0,0,1,574.572998046875,200.29600524902344)">
				<path class="st20" d="M64,202.9c4.1-2.4,5.5-7.6,3.1-11.6c-2.4-4.1-7.6-5.5-11.6-3.1c-3.1,1.8-4.6,5.2-4.2,8.5l-12,6.9l3.2,5.6
					l12-6.9C57.2,204.3,60.9,204.6,64,202.9z"/>
			</g>
			<g transform="matrix(1,0,0,1,534.4199829101562,227.5760040283203)">
				<path class="st21" d="M84.4,173.4l-5,2.9l3.2,5.6l5-2.9L84.4,173.4z"/>
			</g>
			<g transform="matrix(1,0,0,1,574.572998046875,200.29600524902344)">
				<path class="st24" d="M64,202.9c4.1-2.4,5.5-7.6,3.1-11.6c-2.4-4.1-7.6-5.5-11.6-3.1c-3.1,1.8-4.6,5.2-4.2,8.5l-12,6.9l3.2,5.6
					l12-6.9C57.2,204.3,60.9,204.6,64,202.9z"/>
			</g>
			<g transform="matrix(1,0,0,1,608.0989990234375,187.66099548339844)">
				<path class="st23" d="M31.5,209.3c-0.8,0.5-2.1-0.3-3-1.8c-0.8-1.5-0.9-3-0.1-3.5s2.1,0.3,3,1.8S32.3,208.8,31.5,209.3z"/>
			</g>
			<g transform="matrix(1,0,0,1,105.2040023803711,479.48199462890625)">
				<path class="st20" d="M385.9-10.9c-4.1,2.4-5.5,7.6-3.1,11.6c2.4,4.1,7.6,5.5,11.6,3.1c3.1-1.8,4.6-5.2,4.2-8.5l12-6.9l-3.2-5.6
					l-12,6.9C392.7-12.3,389-12.6,385.9-10.9z"/>
			</g>
			<g transform="matrix(1,0,0,1,145.3560028076172,452.2019958496094)">
				<path class="st21" d="M365.4,18.6l5-2.9l-3.2-5.6l-5,2.9L365.4,18.6z"/>
			</g>
			<g transform="matrix(1,0,0,1,105.2040023803711,479.48199462890625)">
				<path class="st24" d="M385.9-10.9c-4.1,2.4-5.5,7.6-3.1,11.6c2.4,4.1,7.6,5.5,11.6,3.1c3.1-1.8,4.6-5.2,4.2-8.5l12-6.9l-3.2-5.6
					l-12,6.9C392.7-12.3,389-12.6,385.9-10.9z"/>
			</g>
			<g transform="matrix(1,0,0,1,71.677001953125,492.11700439453125)">
				<path class="st23" d="M418.4-17.3c0.8-0.5,2.1,0.3,3,1.8c0.8,1.5,0.9,3,0.1,3.5c-0.8,0.5-2.1-0.3-3-1.8
					C417.6-15.3,417.5-16.9,418.4-17.3z"/>
			</g>
			<g transform="matrix(1,0,0,1,479.48199462890625,105.2040023803711)">
				<path class="st20" d="M132.8,265.5c2.4-4.1,1-9.3-3.1-11.6c-4.1-2.4-9.3-1-11.6,3.1c-1.8,3.1-1.4,6.8,0.6,9.5l-6.9,12l5.6,3.2
					l6.9-12C127.6,270.1,131,268.6,132.8,265.5z"/>
			</g>
			<g transform="matrix(1,0,0,1,452.20098876953125,145.35699462890625)">
				<path class="st21" d="M141.9,233.3l-2.9,5l5.6,3.2l2.9-5L141.9,233.3z"/>
			</g>
			<g transform="matrix(1,0,0,1,479.48199462890625,105.2040023803711)">
				<path class="st24" d="M132.8,265.5c2.4-4.1,1-9.3-3.1-11.6c-4.1-2.4-9.3-1-11.6,3.1c-1.8,3.1-1.4,6.8,0.6,9.5l-6.9,12l5.6,3.2
					l6.9-12C127.6,270.1,131,268.6,132.8,265.5z"/>
			</g>
			<g transform="matrix(1,0,0,1,496.052001953125,73.94999694824219)">
				<path class="st23" d="M114.1,290.8c-0.5,0.8-2,0.8-3.5-0.1c-1.5-0.8-2.3-2.2-1.8-3c0.5-0.8,2-0.8,3.5,0.1
					C113.7,288.7,114.5,290,114.1,290.8z"/>
			</g>
			<g transform="matrix(1,0,0,1,200.29400634765625,574.573974609375)">
				<path class="st20" d="M317-73.5c-2.4,4.1-1,9.3,3.1,11.6c4.1,2.4,9.3,1,11.6-3.1c1.8-3.1,1.4-6.8-0.6-9.5l6.9-12l-5.6-3.2
					l-6.9,12C322.2-78.1,318.8-76.6,317-73.5z"/>
			</g>
			<g transform="matrix(1,0,0,1,227.5749969482422,534.4210205078125)">
				<path class="st21" d="M307.9-41.3l2.9-5l-5.6-3.2l-2.9,5L307.9-41.3z"/>
			</g>
			<g transform="matrix(1,0,0,1,200.29400634765625,574.573974609375)">
				<path class="st24" d="M317-73.5c-2.4,4.1-1,9.3,3.1,11.6c4.1,2.4,9.3,1,11.6-3.1c1.8-3.1,1.4-6.8-0.6-9.5l6.9-12l-5.6-3.2
					l-6.9,12C322.2-78.1,318.8-76.6,317-73.5z"/>
			</g>
			<g transform="matrix(1,0,0,1,183.7239990234375,605.8280029296875)">
				<path class="st23" d="M335.8-98.8c0.5-0.8,2-0.8,3.5,0.1c1.5,0.8,2.3,2.2,1.8,3c-0.5,0.8-2,0.8-3.5-0.1
					C336.1-96.7,335.3-98,335.8-98.8z"/>
			</g>
		</g>
		<g transform="matrix(1,0,0,1,263.635009765625,268.23541259765625)">
			<g transform="matrix(1,0,0,1,236.36500549316406,236.36500549316406)">
				<path class="st20" d="M266.7,132.3c0,33.4-27.1,60.5-60.5,60.5c-33.4,0-60.5-27.1-60.5-60.5s27.1-60.5,60.5-60.5
					C239.6,71.8,266.7,98.9,266.7,132.3z"/>
			</g>
			<g transform="matrix(1,0,0,1,264.0880126953125,263.84600830078125)">
				<path class="st21" d="M218.3,59.4c9.4,10.7,15.1,24.7,15.1,40c0,33.4-27.1,60.5-60.5,60.5c-15.3,0-29.2-5.7-39.9-15
					c11.1,12.5,27.3,20.4,45.3,20.4c33.4,0,60.5-27.1,60.5-60.5C238.9,86.7,231,70.4,218.3,59.4z"/>
			</g>
			<g transform="matrix(1,0,0,1,236.36500549316406,236.36500549316406)">
				<path class="st24" d="M266.7,132.3c0,33.4-27.1,60.5-60.5,60.5c-33.4,0-60.5-27.1-60.5-60.5s27.1-60.5,60.5-60.5
					C239.6,71.8,266.7,98.9,266.7,132.3z"/>
			</g>
			<g transform="matrix(1,0,0,1,227.63499450683594,66.80799865722656)">
				<path class="st23" d="M217.3,255.5c0,2.6-2.1,4.7-4.7,4.7c-2.6,0-4.7-2.1-4.7-4.7c0-2.6,2.1-4.7,4.7-4.7
					C215.2,250.8,217.3,252.9,217.3,255.5z"/>
			</g>
			<g transform="matrix(1,0,0,1,333.08599853515625,73.38400268554688)">
				<path class="st23" d="M140.6,250.8c0,2.6-2.1,4.7-4.7,4.7c-2.6,0-4.7-2.1-4.7-4.7c0-2.6,2.1-4.7,4.7-4.7
					C138.5,246,140.6,248.2,140.6,250.8z"/>
			</g>
			<g transform="matrix(1,0,0,1,155.9250030517578,84.94200134277344)">
				<path class="st23" d="M267.7,242.4c0,1.7-1.4,3-3,3s-3-1.4-3-3c0-1.7,1.4-3,3-3S267.7,240.7,267.7,242.4z"/>
			</g>
			<g transform="matrix(1,0,0,1,95.2770004272461,158.30599975585938)">
				<path class="st23" d="M311.8,189c0,1.7-1.4,3-3,3c-1.7,0-3-1.4-3-3c0-1.7,1.4-3,3-3C310.4,186,311.8,187.4,311.8,189z"/>
			</g>
			<g transform="matrix(1,0,0,1,392.52801513671875,173.81399536132812)">
				<path class="st23" d="M94.2,177.8c0,0.8-0.7,1.5-1.5,1.5c-0.8,0-1.5-0.7-1.5-1.5s0.7-1.5,1.5-1.5
					C93.5,176.2,94.2,176.9,94.2,177.8z"/>
			</g>
			<g transform="matrix(1,0,0,1,289.41400146484375,108.79499816894531)">
				<path class="st23" d="M169.2,225c0,0.8-0.7,1.5-1.5,1.5s-1.5-0.7-1.5-1.5s0.7-1.5,1.5-1.5S169.2,224.2,169.2,225z"/>
			</g>
		</g>
	</g>
	<g>
		
			<g transform="matrix(0.9863040447235107,0.16493743658065796,-0.16493743658065796,0.9863040447235107,221.09996032714844,114.01319885253906)">
			<g transform="matrix(1,0,0,1,339.88800048828125,609.3369750976562)">
				<path class="st20" d="M118.6-287.2c0,2.4,2,4.4,4.4,4.4c2.4,0,4.4-2,4.4-4.4c0-1.8-1.1-3.4-2.7-4.1v-7.2h-3.4v7.2
					C119.7-290.6,118.6-289,118.6-287.2z"/>
			</g>
			<g transform="matrix(1,0,0,1,339.8890075683594,564.5159912109375)">
				<path class="st21" d="M124.7-253.6h-3.4v3h3.4V-253.6z"/>
			</g>
			<g transform="matrix(1,0,0,1,339.88800048828125,609.3369750976562)">
				<path class="st25" d="M118.6-287.2c0,2.4,2,4.4,4.4,4.4c2.4,0,4.4-2,4.4-4.4c0-1.8-1.1-3.4-2.7-4.1v-7.2h-3.4v7.2
					C119.7-290.6,118.6-289,118.6-287.2z"/>
			</g>
			<g transform="matrix(1,0,0,1,337.6159973144531,648.281005859375)">
				<path class="st23" d="M123.3-324.1c0-0.5,0.7-0.9,1.6-0.9c0.9,0,1.6,0.4,1.6,0.9c0,0.5-0.7,0.9-1.6,0.9
					C124.1-323.2,123.3-323.6,123.3-324.1z"/>
			</g>
			<g transform="matrix(1,0,0,1,339.88800048828125,70.44200134277344)">
				<path class="st20" d="M127.4,168.6c0-2.4-2-4.4-4.4-4.4c-2.4,0-4.4,2-4.4,4.4c0,1.8,1.1,3.4,2.7,4.1v7.2h3.4v-7.2
					C126.3,172.1,127.4,170.5,127.4,168.6z"/>
			</g>
			<g transform="matrix(1,0,0,1,339.8890075683594,115.26300048828125)">
				<path class="st21" d="M121.3,135.1h3.4v-3h-3.4V135.1z"/>
			</g>
			<g transform="matrix(1,0,0,1,339.88800048828125,70.44200134277344)">
				<path class="st25" d="M127.4,168.6c0-2.4-2-4.4-4.4-4.4c-2.4,0-4.4,2-4.4,4.4c0,1.8,1.1,3.4,2.7,4.1v7.2h3.4v-7.2
					C126.3,172.1,127.4,170.5,127.4,168.6z"/>
			</g>
			<g transform="matrix(1,0,0,1,342.1610107421875,31.496999740600586)">
				<path class="st23" d="M122.6,205.5c0,0.5-0.7,0.9-1.6,0.9s-1.6-0.4-1.6-0.9c0-0.5,0.7-0.9,1.6-0.9
					C121.9,204.6,122.6,205,122.6,205.5z"/>
			</g>
			<g transform="matrix(1,0,0,1,479.48199462890625,574.573974609375)">
				<path class="st20" d="M0.3-255.8c1.2,2.1,3.9,2.8,6,1.6c2.1-1.2,2.8-3.9,1.6-6c-0.9-1.6-2.7-2.4-4.4-2.2L0-268.6l-2.9,1.7
					l3.6,6.2C-0.4-259.3-0.6-257.4,0.3-255.8z"/>
			</g>
			<g transform="matrix(1,0,0,1,452.20098876953125,534.4210205078125)">
				<path class="st21" d="M28.8-225.8l-1.5-2.6l-2.9,1.7l1.5,2.6L28.8-225.8z"/>
			</g>
			<g transform="matrix(1,0,0,1,479.48199462890625,574.573974609375)">
				<path class="st25" d="M0.3-255.8c1.2,2.1,3.9,2.8,6,1.6c2.1-1.2,2.8-3.9,1.6-6c-0.9-1.6-2.7-2.4-4.4-2.2L0-268.6l-2.9,1.7
					l3.6,6.2C-0.4-259.3-0.6-257.4,0.3-255.8z"/>
			</g>
			<g transform="matrix(1,0,0,1,492.1159973144531,608.1010131835938)">
				<path class="st23" d="M-9.1-288.8c-0.2-0.4,0.2-1.1,0.9-1.5c0.8-0.4,1.6-0.5,1.8,0s-0.2,1.1-0.9,1.5
					C-8-288.4-8.9-288.4-9.1-288.8z"/>
			</g>
			<g transform="matrix(1,0,0,1,200.29400634765625,105.2040023803711)">
				<path class="st20" d="M245.6,137.2c-1.2-2.1-3.9-2.8-6-1.6c-2.1,1.2-2.8,3.9-1.6,6c0.9,1.6,2.7,2.4,4.4,2.2l3.6,6.2l2.9-1.7
					l-3.6-6.2C246.4,140.8,246.6,138.8,245.6,137.2z"/>
			</g>
			<g transform="matrix(1,0,0,1,227.5749969482422,145.35800170898438)">
				<path class="st21" d="M217.2,107.3l1.5,2.6l2.9-1.7l-1.5-2.6L217.2,107.3z"/>
			</g>
			<g transform="matrix(1,0,0,1,200.29400634765625,105.2040023803711)">
				<path class="st25" d="M245.6,137.2c-1.2-2.1-3.9-2.8-6-1.6c-2.1,1.2-2.8,3.9-1.6,6c0.9,1.6,2.7,2.4,4.4,2.2l3.6,6.2l2.9-1.7
					l-3.6-6.2C246.4,140.8,246.6,138.8,245.6,137.2z"/>
			</g>
			<g transform="matrix(1,0,0,1,187.66099548339844,71.6780014038086)">
				<path class="st23" d="M255.1,170.2c0.2,0.4-0.2,1.1-0.9,1.5c-0.8,0.4-1.6,0.5-1.8,0c-0.2-0.4,0.2-1.1,0.9-1.5
					C254,169.8,254.8,169.8,255.1,170.2z"/>
			</g>
			<g transform="matrix(1,0,0,1,574.572998046875,479.4830017089844)">
				<path class="st20" d="M-77.9-174.3c2.1,1.2,4.8,0.5,6-1.6c1.2-2.1,0.5-4.8-1.6-6c-1.6-0.9-3.5-0.7-4.9,0.3l-6.2-3.6l-1.7,2.9
					l6.2,3.6C-80.3-177-79.5-175.2-77.9-174.3z"/>
			</g>
			<g transform="matrix(1,0,0,1,534.4199829101562,452.2019958496094)">
				<path class="st21" d="M-41.9-156.4l-2.6-1.5l-1.7,2.9l2.6,1.5L-41.9-156.4z"/>
			</g>
			<g transform="matrix(1,0,0,1,574.572998046875,479.4830017089844)">
				<path class="st25" d="M-77.9-174.3c2.1,1.2,4.8,0.5,6-1.6c1.2-2.1,0.5-4.8-1.6-6c-1.6-0.9-3.5-0.7-4.9,0.3l-6.2-3.6l-1.7,2.9
					l6.2,3.6C-80.3-177-79.5-175.2-77.9-174.3z"/>
			</g>
			<g transform="matrix(1,0,0,1,605.8280029296875,496.0539855957031)">
				<path class="st23" d="M-106.2-192c-0.4-0.2-0.4-1.1,0-1.8c0.4-0.8,1.1-1.2,1.5-0.9c0.4,0.2,0.4,1.1,0,1.8
					C-105-192.2-105.7-191.7-106.2-192z"/>
			</g>
			<g transform="matrix(1,0,0,1,105.2030029296875,200.29600524902344)">
				<path class="st20" d="M323.9,55.7c-2.1-1.2-4.8-0.5-6,1.6c-1.2,2.1-0.5,4.8,1.6,6c1.6,0.9,3.5,0.7,4.9-0.3l6.2,3.6l1.7-2.9
					l-6.2-3.6C326.3,58.4,325.5,56.7,323.9,55.7z"/>
			</g>
			<g transform="matrix(1,0,0,1,145.3560028076172,227.5760040283203)">
				<path class="st21" d="M287.9,37.9l2.6,1.5l1.7-2.9l-2.6-1.5L287.9,37.9z"/>
			</g>
			<g transform="matrix(1,0,0,1,105.2030029296875,200.29600524902344)">
				<path class="st25" d="M323.9,55.7c-2.1-1.2-4.8-0.5-6,1.6c-1.2,2.1-0.5,4.8,1.6,6c1.6,0.9,3.5,0.7,4.9-0.3l6.2,3.6l1.7-2.9
					l-6.2-3.6C326.3,58.4,325.5,56.7,323.9,55.7z"/>
			</g>
			<g transform="matrix(1,0,0,1,73.9489974975586,183.72500610351562)">
				<path class="st23" d="M352.1,73.4c0.4,0.2,0.4,1.1,0,1.8c-0.4,0.8-1.1,1.2-1.5,0.9c-0.4-0.2-0.4-1.1,0-1.8
					C351,73.6,351.7,73.2,352.1,73.4z"/>
			</g>
			<g transform="matrix(1,0,0,1,609.3350219726562,339.8890075683594)">
				<path class="st20" d="M-104.9-54.9c2.4,0,4.4-2,4.4-4.4c0-2.4-2-4.4-4.4-4.4c-1.8,0-3.4,1.1-4.1,2.7l-7.2,0v3.4l7.2,0
					C-108.4-56-106.8-54.9-104.9-54.9z"/>
			</g>
			<g transform="matrix(1,0,0,1,564.5150146484375,339.8900146484375)">
				<path class="st21" d="M-68.4-61h-3v3.4l3,0V-61z"/>
			</g>
			<g transform="matrix(1,0,0,1,609.3350219726562,339.8890075683594)">
				<path class="st25" d="M-104.9-54.9c2.4,0,4.4-2,4.4-4.4c0-2.4-2-4.4-4.4-4.4c-1.8,0-3.4,1.1-4.1,2.7l-7.2,0v3.4l7.2,0
					C-108.4-56-106.8-54.9-104.9-54.9z"/>
			</g>
			<g transform="matrix(1,0,0,1,648.280029296875,342.1619873046875)">
				<path class="st23" d="M-141.8-59.6c-0.5,0-0.9-0.7-0.9-1.6c0-0.9,0.4-1.6,0.9-1.6c0.5,0,0.9,0.7,0.9,1.6
					C-140.9-60.4-141.3-59.6-141.8-59.6z"/>
			</g>
			<g transform="matrix(1,0,0,1,70.44100189208984,339.8890075683594)">
				<path class="st20" d="M350.9-63.7c-2.4,0-4.4,2-4.4,4.4c0,2.4,2,4.4,4.4,4.4c1.8,0,3.4-1.1,4.1-2.7h7.2l0-3.4H355
					C354.3-62.6,352.7-63.7,350.9-63.7z"/>
			</g>
			<g transform="matrix(1,0,0,1,115.26200103759766,339.8900146484375)">
				<path class="st21" d="M314.4-57.6l3,0V-61l-3,0V-57.6z"/>
			</g>
			<g transform="matrix(1,0,0,1,70.44100189208984,339.8890075683594)">
				<path class="st25" d="M350.9-63.7c-2.4,0-4.4,2-4.4,4.4c0,2.4,2,4.4,4.4,4.4c1.8,0,3.4-1.1,4.1-2.7h7.2l0-3.4H355
					C354.3-62.6,352.7-63.7,350.9-63.7z"/>
			</g>
			<g transform="matrix(1,0,0,1,31.496999740600586,337.61700439453125)">
				<path class="st23" d="M387.8-58.9c0.5,0,0.9,0.7,0.9,1.6c0,0.9-0.4,1.6-0.9,1.6s-0.9-0.7-0.9-1.6
					C386.9-58.2,387.3-58.9,387.8-58.9z"/>
			</g>
			<g transform="matrix(1,0,0,1,574.572998046875,200.29600524902344)">
				<path class="st20" d="M-73.5,63.4c2.1-1.2,2.8-3.9,1.6-6c-1.2-2.1-3.9-2.8-6-1.6c-1.6,0.9-2.4,2.7-2.2,4.4l-6.2,3.6l1.7,2.9
					l6.2-3.6C-77.1,64.1-75.1,64.3-73.5,63.4z"/>
			</g>
			<g transform="matrix(1,0,0,1,534.4199829101562,227.5760040283203)">
				<path class="st21" d="M-43.6,35l-2.6,1.5l1.7,2.9l2.6-1.5L-43.6,35z"/>
			</g>
			<g transform="matrix(1,0,0,1,574.572998046875,200.29600524902344)">
				<path class="st25" d="M-73.5,63.4c2.1-1.2,2.8-3.9,1.6-6c-1.2-2.1-3.9-2.8-6-1.6c-1.6,0.9-2.4,2.7-2.2,4.4l-6.2,3.6l1.7,2.9
					l6.2-3.6C-77.1,64.1-75.1,64.3-73.5,63.4z"/>
			</g>
			<g transform="matrix(1,0,0,1,608.0989990234375,187.66099548339844)">
				<path class="st23" d="M-106.5,72.8c-0.4,0.2-1.1-0.2-1.5-0.9c-0.4-0.8-0.5-1.6,0-1.8s1.1,0.2,1.5,0.9S-106.1,72.6-106.5,72.8z"
					/>
			</g>
			<g transform="matrix(1,0,0,1,105.2040023803711,479.48199462890625)">
				<path class="st20" d="M319.5-181.9c-2.1,1.2-2.8,3.9-1.6,6c1.2,2.1,3.9,2.8,6,1.6c1.6-0.9,2.4-2.7,2.2-4.4l6.2-3.6l-1.7-2.9
					l-6.2,3.6C323-182.7,321.1-182.8,319.5-181.9z"/>
			</g>
			<g transform="matrix(1,0,0,1,145.3560028076172,452.2019958496094)">
				<path class="st21" d="M289.6-153.5l2.6-1.5l-1.7-2.9l-2.6,1.5L289.6-153.5z"/>
			</g>
			<g transform="matrix(1,0,0,1,105.2040023803711,479.48199462890625)">
				<path class="st25" d="M319.5-181.9c-2.1,1.2-2.8,3.9-1.6,6c1.2,2.1,3.9,2.8,6,1.6c1.6-0.9,2.4-2.7,2.2-4.4l6.2-3.6l-1.7-2.9
					l-6.2,3.6C323-182.7,321.1-182.8,319.5-181.9z"/>
			</g>
			<g transform="matrix(1,0,0,1,71.677001953125,492.11700439453125)">
				<path class="st23" d="M352.5-191.4c0.4-0.2,1.1,0.2,1.5,0.9c0.4,0.8,0.5,1.6,0,1.8c-0.4,0.2-1.1-0.2-1.5-0.9
					C352.1-190.3,352.1-191.1,352.5-191.4z"/>
			</g>
			<g transform="matrix(1,0,0,1,479.48199462890625,105.2040023803711)">
				<path class="st20" d="M8,141.6c1.2-2.1,0.5-4.8-1.6-6c-2.1-1.2-4.8-0.5-6,1.6c-0.9,1.6-0.7,3.5,0.3,4.9l-3.6,6.2L0,150l3.6-6.2
					C5.3,144,7,143.2,8,141.6z"/>
			</g>
			<g transform="matrix(1,0,0,1,452.20098876953125,145.35699462890625)">
				<path class="st21" d="M25.8,105.6l-1.5,2.6l2.9,1.7l1.5-2.6L25.8,105.6z"/>
			</g>
			<g transform="matrix(1,0,0,1,479.48199462890625,105.2040023803711)">
				<path class="st25" d="M8,141.6c1.2-2.1,0.5-4.8-1.6-6c-2.1-1.2-4.8-0.5-6,1.6c-0.9,1.6-0.7,3.5,0.3,4.9l-3.6,6.2L0,150l3.6-6.2
					C5.3,144,7,143.2,8,141.6z"/>
			</g>
			<g transform="matrix(1,0,0,1,496.052001953125,73.94999694824219)">
				<path class="st23" d="M-9.7,169.9c-0.2,0.4-1.1,0.4-1.8,0c-0.8-0.4-1.2-1.1-0.9-1.5c0.2-0.4,1.1-0.4,1.8,0
					C-9.9,168.7-9.5,169.4-9.7,169.9z"/>
			</g>
			<g transform="matrix(1,0,0,1,200.29400634765625,574.573974609375)">
				<path class="st20" d="M238-260.2c-1.2,2.1-0.5,4.8,1.6,6c2.1,1.2,4.8,0.5,6-1.6c0.9-1.6,0.7-3.5-0.3-4.9l3.6-6.2l-2.9-1.7
					l-3.6,6.2C240.7-262.6,238.9-261.8,238-260.2z"/>
			</g>
			<g transform="matrix(1,0,0,1,227.5749969482422,534.4210205078125)">
				<path class="st21" d="M220.1-224.2l1.5-2.6l-2.9-1.7l-1.5,2.6L220.1-224.2z"/>
			</g>
			<g transform="matrix(1,0,0,1,200.29400634765625,574.573974609375)">
				<path class="st25" d="M238-260.2c-1.2,2.1-0.5,4.8,1.6,6c2.1,1.2,4.8,0.5,6-1.6c0.9-1.6,0.7-3.5-0.3-4.9l3.6-6.2l-2.9-1.7
					l-3.6,6.2C240.7-262.6,238.9-261.8,238-260.2z"/>
			</g>
			<g transform="matrix(1,0,0,1,183.7239990234375,605.8280029296875)">
				<path class="st23" d="M255.7-288.4c0.2-0.4,1.1-0.4,1.8,0c0.8,0.4,1.2,1.1,0.9,1.5c-0.2,0.4-1.1,0.4-1.8,0
					C255.9-287.3,255.5-288,255.7-288.4z"/>
			</g>
		</g>
		<g transform="matrix(1,0,0,1,263.635009765625,268.23541259765625)">
			<g transform="matrix(1,0,0,1,236.36500549316406,236.36500549316406)">
				<path class="st20" d="M162.6-37.6c0,17.3-14,31.3-31.3,31.3c-17.3,0-31.3-14-31.3-31.3s14-31.3,31.3-31.3
					C148.6-68.9,162.6-54.9,162.6-37.6z"/>
			</g>
			<g transform="matrix(1,0,0,1,264.0880126953125,263.84600830078125)">
				<path class="st21" d="M124.2-88.6c4.9,5.5,7.8,12.8,7.8,20.7c0,17.3-14,31.3-31.3,31.3c-7.9,0-15.1-2.9-20.6-7.8
					c5.7,6.5,14.1,10.6,23.5,10.6c17.3,0,31.3-14,31.3-31.3C134.9-74.4,130.8-82.8,124.2-88.6z"/>
			</g>
			<g transform="matrix(1,0,0,1,236.36500549316406,236.36500549316406)">
				<path class="st25" d="M162.6-37.6c0,17.3-14,31.3-31.3,31.3c-17.3,0-31.3-14-31.3-31.3s14-31.3,31.3-31.3
					C148.6-68.9,162.6-54.9,162.6-37.6z"/>
			</g>
			<g transform="matrix(1,0,0,1,227.63499450683594,66.80799865722656)">
				<path class="st23" d="M141.3,108c0,1.4-1.1,2.4-2.4,2.4c-1.4,0-2.4-1.1-2.4-2.4c0-1.4,1.1-2.4,2.4-2.4
					C140.2,105.6,141.3,106.7,141.3,108z"/>
			</g>
			<g transform="matrix(1,0,0,1,333.08599853515625,73.38400268554688)">
				<path class="st23" d="M50.7,102.4c0,1.4-1.1,2.4-2.5,2.4c-1.4,0-2.5-1.1-2.5-2.4c0-1.4,1.1-2.4,2.5-2.4
					C49.6,99.9,50.7,101,50.7,102.4z"/>
			</g>
			<g transform="matrix(1,0,0,1,155.9250030517578,84.94200134277344)">
				<path class="st23" d="M202,92.4c0,0.9-0.7,1.6-1.6,1.6c-0.9,0-1.6-0.7-1.6-1.6s0.7-1.6,1.6-1.6C201.2,90.9,202,91.6,202,92.4z"
					/>
			</g>
			<g transform="matrix(1,0,0,1,95.2770004272461,158.30599975585938)">
				<path class="st23" d="M254,29.4c0,0.9-0.7,1.6-1.6,1.6c-0.9,0-1.6-0.7-1.6-1.6c0-0.9,0.7-1.6,1.6-1.6
					C253.3,27.9,254,28.6,254,29.4z"/>
			</g>
			<g transform="matrix(1,0,0,1,392.52801513671875,173.81399536132812)">
				<path class="st23" d="M-2,16.1c0,0.4-0.4,0.8-0.8,0.8c-0.4,0-0.8-0.4-0.8-0.8s0.4-0.8,0.8-0.8C-2.3,15.3-2,15.7-2,16.1z"/>
			</g>
			<g transform="matrix(1,0,0,1,289.41400146484375,108.79499816894531)">
				<path class="st23" d="M86.5,72c0,0.4-0.4,0.8-0.8,0.8c-0.4,0-0.8-0.4-0.8-0.8c0-0.4,0.4-0.8,0.8-0.8
					C86.2,71.2,86.5,71.5,86.5,72z"/>
			</g>
		</g>
	</g>
	<g>
		
			<g transform="matrix(0.9863040447235107,0.16493743658065796,-0.16493743658065796,0.9863040447235107,221.09996032714844,114.01319885253906)">
			<g transform="matrix(1,0,0,1,339.88800048828125,609.3369750976562)">
				<path class="st20" d="M404.7-194.3c0,2.9,2.4,5.3,5.3,5.3c2.9,0,5.3-2.4,5.3-5.3c0-2.2-1.4-4.1-3.3-4.9v-8.7h-4l0,8.7
					C406-198.4,404.7-196.5,404.7-194.3z"/>
			</g>
			<g transform="matrix(1,0,0,1,339.8890075683594,564.5159912109375)">
				<path class="st21" d="M412-163h-4v3.6h4V-163z"/>
			</g>
			<g transform="matrix(1,0,0,1,339.88800048828125,609.3369750976562)">
				<path class="st26" d="M404.7-194.3c0,2.9,2.4,5.3,5.3,5.3c2.9,0,5.3-2.4,5.3-5.3c0-2.2-1.4-4.1-3.3-4.9v-8.7h-4l0,8.7
					C406-198.4,404.7-196.5,404.7-194.3z"/>
			</g>
			<g transform="matrix(1,0,0,1,337.6159973144531,648.281005859375)">
				<path class="st23" d="M409.9-230.7c0-0.6,0.9-1,1.9-1s1.9,0.5,1.9,1c0,0.6-0.9,1-1.9,1C410.8-229.7,409.9-230.2,409.9-230.7z"/>
			</g>
			<g transform="matrix(1,0,0,1,339.88800048828125,70.44200134277344)">
				<path class="st20" d="M415.3,244.7c0-2.9-2.4-5.3-5.3-5.3c-2.9,0-5.3,2.4-5.3,5.3c0,2.2,1.4,4.1,3.3,4.9v8.7h4v-8.7
					C413.9,248.8,415.3,246.9,415.3,244.7z"/>
			</g>
			<g transform="matrix(1,0,0,1,339.8890075683594,115.26300048828125)">
				<path class="st21" d="M407.9,213.4h4v-3.6l-4,0V213.4z"/>
			</g>
			<g transform="matrix(1,0,0,1,339.88800048828125,70.44200134277344)">
				<path class="st26" d="M415.3,244.7c0-2.9-2.4-5.3-5.3-5.3c-2.9,0-5.3,2.4-5.3,5.3c0,2.2,1.4,4.1,3.3,4.9v8.7h4v-8.7
					C413.9,248.8,415.3,246.9,415.3,244.7z"/>
			</g>
			<g transform="matrix(1,0,0,1,342.1610107421875,31.496999740600586)">
				<path class="st23" d="M410,281.1c0,0.6-0.9,1-1.9,1c-1.1,0-1.9-0.5-1.9-1c0-0.6,0.9-1,1.9-1C409.1,280.1,410,280.5,410,281.1z"
					/>
			</g>
			<g transform="matrix(1,0,0,1,479.48199462890625,574.573974609375)">
				<path class="st20" d="M290.8-163.6c1.5,2.5,4.7,3.4,7.2,1.9c2.5-1.5,3.4-4.7,1.9-7.2c-1.1-1.9-3.2-2.9-5.3-2.6l-4.3-7.5l-3.5,2
					l4.3,7.5C289.9-167.8,289.6-165.5,290.8-163.6z"/>
			</g>
			<g transform="matrix(1,0,0,1,452.20098876953125,534.4210205078125)">
				<path class="st21" d="M319.4-135.7l-1.8-3.1l-3.5,2l1.8,3.1L319.4-135.7z"/>
			</g>
			<g transform="matrix(1,0,0,1,479.48199462890625,574.573974609375)">
				<path class="st26" d="M290.8-163.6c1.5,2.5,4.7,3.4,7.2,1.9c2.5-1.5,3.4-4.7,1.9-7.2c-1.1-1.9-3.2-2.9-5.3-2.6l-4.3-7.5l-3.5,2
					l4.3,7.5C289.9-167.8,289.6-165.5,290.8-163.6z"/>
			</g>
			<g transform="matrix(1,0,0,1,492.1159973144531,608.1010131835938)">
				<path class="st23" d="M282-196.4c-0.3-0.5,0.2-1.3,1.1-1.9c0.9-0.5,1.9-0.5,2.2,0c0.3,0.5-0.2,1.3-1.1,1.9
					C283.2-196,282.3-195.9,282-196.4z"/>
			</g>
			<g transform="matrix(1,0,0,1,200.29400634765625,105.2040023803711)">
				<path class="st20" d="M529.2,213.9c-1.5-2.5-4.7-3.4-7.2-1.9c-2.5,1.5-3.4,4.7-1.9,7.2c1.1,1.9,3.2,2.9,5.3,2.6l4.3,7.5l3.5-2
					l-4.3-7.5C530,218.2,530.3,215.9,529.2,213.9z"/>
			</g>
			<g transform="matrix(1,0,0,1,227.5749969482422,145.35800170898438)">
				<path class="st21" d="M500.5,186.1l1.8,3.1l3.5-2L504,184L500.5,186.1z"/>
			</g>
			<g transform="matrix(1,0,0,1,200.29400634765625,105.2040023803711)">
				<path class="st26" d="M529.2,213.9c-1.5-2.5-4.7-3.4-7.2-1.9c-2.5,1.5-3.4,4.7-1.9,7.2c1.1,1.9,3.2,2.9,5.3,2.6l4.3,7.5l3.5-2
					l-4.3-7.5C530,218.2,530.3,215.9,529.2,213.9z"/>
			</g>
			<g transform="matrix(1,0,0,1,187.66099548339844,71.6780014038086)">
				<path class="st23" d="M537.9,246.8c0.3,0.5-0.2,1.3-1.1,1.9c-0.9,0.5-1.9,0.6-2.2,0c-0.3-0.5,0.2-1.3,1.1-1.9
					C536.7,246.3,537.6,246.3,537.9,246.8z"/>
			</g>
			<g transform="matrix(1,0,0,1,574.572998046875,479.4830017089844)">
				<path class="st20" d="M215.9-84.8c2.5,1.5,5.8,0.6,7.2-1.9c1.5-2.5,0.6-5.8-1.9-7.2c-1.9-1.1-4.2-0.9-5.9,0.4l-7.5-4.3l-2,3.5
					l7.5,4.3C213-88.1,214-85.9,215.9-84.8z"/>
			</g>
			<g transform="matrix(1,0,0,1,534.4199829101562,452.2019958496094)">
				<path class="st21" d="M251.1-68.9l-3.1-1.8l-2,3.5l3.1,1.8L251.1-68.9z"/>
			</g>
			<g transform="matrix(1,0,0,1,574.572998046875,479.4830017089844)">
				<path class="st26" d="M215.9-84.8c2.5,1.5,5.8,0.6,7.2-1.9c1.5-2.5,0.6-5.8-1.9-7.2c-1.9-1.1-4.2-0.9-5.9,0.4l-7.5-4.3l-2,3.5
					l7.5,4.3C213-88.1,214-85.9,215.9-84.8z"/>
			</g>
			<g transform="matrix(1,0,0,1,605.8280029296875,496.0539855957031)">
				<path class="st23" d="M188.3-102.8c-0.5-0.3-0.5-1.3,0-2.2c0.5-0.9,1.4-1.4,1.9-1.1c0.5,0.3,0.5,1.3,0,2.2
					C189.6-103,188.8-102.5,188.3-102.8z"/>
			</g>
			<g transform="matrix(1,0,0,1,105.2030029296875,200.29600524902344)">
				<path class="st20" d="M604,135.2c-2.5-1.5-5.8-0.6-7.2,1.9c-1.5,2.5-0.6,5.8,1.9,7.2c1.9,1.1,4.2,0.9,5.9-0.4l7.5,4.3l2-3.5
					l-7.5-4.3C606.9,138.4,605.9,136.3,604,135.2z"/>
			</g>
			<g transform="matrix(1,0,0,1,145.3560028076172,227.5760040283203)">
				<path class="st21" d="M568.8,119.2l3.1,1.8l2-3.5l-3.1-1.8L568.8,119.2z"/>
			</g>
			<g transform="matrix(1,0,0,1,105.2030029296875,200.29600524902344)">
				<path class="st26" d="M604,135.2c-2.5-1.5-5.8-0.6-7.2,1.9c-1.5,2.5-0.6,5.8,1.9,7.2c1.9,1.1,4.2,0.9,5.9-0.4l7.5,4.3l2-3.5
					l-7.5-4.3C606.9,138.4,605.9,136.3,604,135.2z"/>
			</g>
			<g transform="matrix(1,0,0,1,73.9489974975586,183.72500610351562)">
				<path class="st23" d="M631.6,153.1c0.5,0.3,0.5,1.3,0,2.2c-0.5,0.9-1.4,1.4-1.9,1.1c-0.5-0.3-0.5-1.3,0-2.2
					C630.3,153.3,631.1,152.8,631.6,153.1z"/>
			</g>
			<g transform="matrix(1,0,0,1,609.3350219726562,339.8890075683594)">
				<path class="st20" d="M190.5,30.5c2.9,0,5.3-2.4,5.3-5.3c0-2.9-2.4-5.3-5.3-5.3c-2.2,0-4.1,1.4-4.9,3.3l-8.7,0l0,4l8.7,0
					C186.4,29.1,188.3,30.5,190.5,30.5z"/>
			</g>
			<g transform="matrix(1,0,0,1,564.5150146484375,339.8900146484375)">
				<path class="st21" d="M225.4,23.2l-3.6,0l0,4l3.6,0V23.2z"/>
			</g>
			<g transform="matrix(1,0,0,1,609.3350219726562,339.8890075683594)">
				<path class="st26" d="M190.5,30.5c2.9,0,5.3-2.4,5.3-5.3c0-2.9-2.4-5.3-5.3-5.3c-2.2,0-4.1,1.4-4.9,3.3l-8.7,0l0,4l8.7,0
					C186.4,29.1,188.3,30.5,190.5,30.5z"/>
			</g>
			<g transform="matrix(1,0,0,1,648.280029296875,342.1619873046875)">
				<path class="st23" d="M154,25.2c-0.6,0-1-0.9-1-1.9c0-1.1,0.5-1.9,1-1.9c0.6,0,1,0.9,1,1.9C155.1,24.4,154.6,25.2,154,25.2z"/>
			</g>
			<g transform="matrix(1,0,0,1,70.44100189208984,339.8890075683594)">
				<path class="st20" d="M629.4,19.9c-2.9,0-5.3,2.4-5.3,5.3c0,2.9,2.4,5.3,5.3,5.3c2.2,0,4.1-1.4,4.9-3.3l8.7,0v-4l-8.7,0
					C633.5,21.2,631.6,19.9,629.4,19.9z"/>
			</g>
			<g transform="matrix(1,0,0,1,115.26200103759766,339.8900146484375)">
				<path class="st21" d="M594.6,27.2l3.6,0v-4l-3.6,0V27.2z"/>
			</g>
			<g transform="matrix(1,0,0,1,70.44100189208984,339.8890075683594)">
				<path class="st26" d="M629.4,19.9c-2.9,0-5.3,2.4-5.3,5.3c0,2.9,2.4,5.3,5.3,5.3c2.2,0,4.1-1.4,4.9-3.3l8.7,0v-4l-8.7,0
					C633.5,21.2,631.6,19.9,629.4,19.9z"/>
			</g>
			<g transform="matrix(1,0,0,1,31.496999740600586,337.61700439453125)">
				<path class="st23" d="M665.9,25.2c0.6,0,1,0.9,1,1.9c0,1.1-0.5,1.9-1,1.9c-0.6,0-1-0.9-1-1.9C664.8,26,665.3,25.2,665.9,25.2z"
					/>
			</g>
			<g transform="matrix(1,0,0,1,574.572998046875,200.29600524902344)">
				<path class="st20" d="M221.2,144.4c2.5-1.5,3.4-4.7,1.9-7.2c-1.5-2.5-4.7-3.4-7.2-1.9c-1.9,1.1-2.9,3.2-2.6,5.3l-7.5,4.3l2,3.5
					l7.5-4.3C217,145.3,219.3,145.5,221.2,144.4z"/>
			</g>
			<g transform="matrix(1,0,0,1,534.4199829101562,227.5760040283203)">
				<path class="st21" d="M249.1,115.7l-3.1,1.8l2,3.5l3.1-1.8L249.1,115.7z"/>
			</g>
			<g transform="matrix(1,0,0,1,574.572998046875,200.29600524902344)">
				<path class="st26" d="M221.2,144.4c2.5-1.5,3.4-4.7,1.9-7.2c-1.5-2.5-4.7-3.4-7.2-1.9c-1.9,1.1-2.9,3.2-2.6,5.3l-7.5,4.3l2,3.5
					l7.5-4.3C217,145.3,219.3,145.5,221.2,144.4z"/>
			</g>
			<g transform="matrix(1,0,0,1,608.0989990234375,187.66099548339844)">
				<path class="st23" d="M188.3,153.2c-0.5,0.3-1.3-0.2-1.9-1.1c-0.5-0.9-0.5-1.9,0-2.2s1.3,0.2,1.9,1.1
					C188.8,151.9,188.8,152.9,188.3,153.2z"/>
			</g>
			<g transform="matrix(1,0,0,1,105.2040023803711,479.48199462890625)">
				<path class="st20" d="M598.7-94c-2.5,1.5-3.4,4.7-1.9,7.2c1.5,2.5,4.7,3.4,7.2,1.9c1.9-1.1,2.9-3.2,2.6-5.3l7.5-4.3l-2-3.5
					l-7.5,4.3C602.9-94.9,600.6-95.1,598.7-94z"/>
			</g>
			<g transform="matrix(1,0,0,1,145.3560028076172,452.2019958496094)">
				<path class="st21" d="M570.8-65.4l3.1-1.8l-2-3.5l-3.1,1.8L570.8-65.4z"/>
			</g>
			<g transform="matrix(1,0,0,1,105.2040023803711,479.48199462890625)">
				<path class="st26" d="M598.7-94c-2.5,1.5-3.4,4.7-1.9,7.2c1.5,2.5,4.7,3.4,7.2,1.9c1.9-1.1,2.9-3.2,2.6-5.3l7.5-4.3l-2-3.5
					l-7.5,4.3C602.9-94.9,600.6-95.1,598.7-94z"/>
			</g>
			<g transform="matrix(1,0,0,1,71.677001953125,492.11700439453125)">
				<path class="st23" d="M631.6-102.8c0.5-0.3,1.3,0.2,1.9,1.1c0.5,0.9,0.6,1.9,0,2.2c-0.5,0.3-1.3-0.2-1.9-1.1
					C631.1-101.5,631.1-102.5,631.6-102.8z"/>
			</g>
			<g transform="matrix(1,0,0,1,479.48199462890625,105.2040023803711)">
				<path class="st20" d="M299.9,219.2c1.5-2.5,0.6-5.8-1.9-7.2c-2.5-1.5-5.8-0.6-7.2,1.9c-1.1,1.9-0.9,4.2,0.4,5.9l-4.3,7.5l3.5,2
					l4.3-7.5C296.7,222.1,298.8,221.2,299.9,219.2z"/>
			</g>
			<g transform="matrix(1,0,0,1,452.20098876953125,145.35699462890625)">
				<path class="st21" d="M315.9,184l-1.8,3.1l3.5,2l1.8-3.1L315.9,184z"/>
			</g>
			<g transform="matrix(1,0,0,1,479.48199462890625,105.2040023803711)">
				<path class="st26" d="M299.9,219.2c1.5-2.5,0.6-5.8-1.9-7.2c-2.5-1.5-5.8-0.6-7.2,1.9c-1.1,1.9-0.9,4.2,0.4,5.9l-4.3,7.5l3.5,2
					l4.3-7.5C296.7,222.1,298.8,221.2,299.9,219.2z"/>
			</g>
			<g transform="matrix(1,0,0,1,496.052001953125,73.94999694824219)">
				<path class="st23" d="M282,246.8c-0.3,0.5-1.3,0.5-2.2,0c-0.9-0.5-1.4-1.4-1.1-1.9c0.3-0.5,1.3-0.5,2.2,0
					C281.8,245.5,282.3,246.3,282,246.8z"/>
			</g>
			<g transform="matrix(1,0,0,1,200.29400634765625,574.573974609375)">
				<path class="st20" d="M520-168.9c-1.5,2.5-0.6,5.8,1.9,7.2c2.5,1.5,5.8,0.6,7.2-1.9c1.1-1.9,0.9-4.2-0.4-5.9l4.3-7.5l-3.5-2
					l-4.3,7.5C523.2-171.8,521.1-170.8,520-168.9z"/>
			</g>
			<g transform="matrix(1,0,0,1,227.5749969482422,534.4210205078125)">
				<path class="st21" d="M504-133.7l1.8-3.1l-3.5-2l-1.8,3.1L504-133.7z"/>
			</g>
			<g transform="matrix(1,0,0,1,200.29400634765625,574.573974609375)">
				<path class="st26" d="M520-168.9c-1.5,2.5-0.6,5.8,1.9,7.2c2.5,1.5,5.8,0.6,7.2-1.9c1.1-1.9,0.9-4.2-0.4-5.9l4.3-7.5l-3.5-2
					l-4.3,7.5C523.2-171.8,521.1-170.8,520-168.9z"/>
			</g>
			<g transform="matrix(1,0,0,1,183.7239990234375,605.8280029296875)">
				<path class="st23" d="M537.9-196.5c0.3-0.5,1.3-0.5,2.2,0c0.9,0.5,1.4,1.4,1.1,1.9c-0.3,0.5-1.3,0.5-2.2,0
					C538.1-195.1,537.6-196,537.9-196.5z"/>
			</g>
		</g>
		<g transform="matrix(1,0,0,1,263.635009765625,268.23541259765625)">
			<g transform="matrix(1,0,0,1,236.36500549316406,236.36500549316406)">
				<path class="st20" d="M438.1,93c0,20.8-16.9,37.7-37.7,37.7c-20.8,0-37.7-16.9-37.7-37.7s16.9-37.7,37.7-37.7
					C421.2,55.4,438.1,72.2,438.1,93z"/>
			</g>
			<g transform="matrix(1,0,0,1,264.0880126953125,263.84600830078125)">
				<path class="st21" d="M397.5,37.3c5.9,6.6,9.4,15.4,9.4,24.9c0,20.8-16.9,37.7-37.7,37.7c-9.5,0-18.2-3.5-24.8-9.4
					c6.9,7.8,17,12.7,28.2,12.7c20.8,0,37.7-16.9,37.7-37.7C410.4,54.3,405.4,44.2,397.5,37.3z"/>
			</g>
			<g transform="matrix(1,0,0,1,236.36500549316406,236.36500549316406)">
				<path class="st26" d="M438.1,93c0,20.8-16.9,37.7-37.7,37.7c-20.8,0-37.7-16.9-37.7-37.7s16.9-37.7,37.7-37.7
					C421.2,55.4,438.1,72.2,438.1,93z"/>
			</g>
			<g transform="matrix(1,0,0,1,227.63499450683594,66.80799865722656)">
				<path class="st23" d="M410.6,233.8c0,1.6-1.3,2.9-2.9,2.9c-1.6,0-2.9-1.3-2.9-2.9c0-1.6,1.3-2.9,2.9-2.9
					C409.3,230.8,410.6,232.1,410.6,233.8z"/>
			</g>
			<g transform="matrix(1,0,0,1,333.08599853515625,73.38400268554688)">
				<path class="st23" d="M323.1,228.3c0,1.6-1.3,2.9-2.9,2.9c-1.6,0-2.9-1.3-2.9-2.9c0-1.6,1.3-2.9,2.9-2.9
					C321.8,225.3,323.1,226.7,323.1,228.3z"/>
			</g>
			<g transform="matrix(1,0,0,1,155.9250030517578,84.94200134277344)">
				<path class="st23" d="M469.1,218.7c0,1-0.8,1.9-1.9,1.9s-1.9-0.8-1.9-1.9c0-1,0.8-1.9,1.9-1.9S469.1,217.7,469.1,218.7z"/>
			</g>
			<g transform="matrix(1,0,0,1,95.2770004272461,158.30599975585938)">
				<path class="st23" d="M519.4,157.8c0,1-0.8,1.9-1.9,1.9c-1,0-1.9-0.8-1.9-1.9c0-1,0.8-1.9,1.9-1.9
					C518.5,155.9,519.4,156.8,519.4,157.8z"/>
			</g>
			<g transform="matrix(1,0,0,1,392.52801513671875,173.81399536132812)">
				<path class="st23" d="M271.8,145c0,0.5-0.4,0.9-0.9,0.9c-0.5,0-0.9-0.4-0.9-0.9s0.4-0.9,0.9-0.9
					C271.3,144,271.8,144.4,271.8,145z"/>
			</g>
			<g transform="matrix(1,0,0,1,289.41400146484375,108.79499816894531)">
				<path class="st23" d="M357.3,198.9c0,0.5-0.4,0.9-0.9,0.9s-0.9-0.4-0.9-0.9s0.4-0.9,0.9-0.9S357.3,198.4,357.3,198.9z"/>
			</g>
		</g>
	</g>
</g>
</svg>
